<svg id="Vrstva_1" data-name="Vrstva 1" xmlns="http://www.w3.org/2000/svg" xmlns:xlink="http://www.w3.org/1999/xlink" viewBox="0 0 724.22 341.16"><defs><style>.cls-1{fill:#fdf5af;}.cls-2{clip-path:url(#clip-path);}.cls-3{fill:#fff;}.cls-4{fill:#1d1d1b;}</style><clipPath id="clip-path" transform="translate(181.72 -6.65)"><circle class="cls-1" cx="176.95" cy="176.87" r="167.24"/></clipPath><image id="image" width="1400" height="860" xlink:href="../../../../../salvatoreganacci.png"/></defs><circle class="cls-1" cx="358.67" cy="170.21" r="167.24"/><g class="cls-2"><path class="cls-3" d="M326.31,257s-5-1.19-7-2.9-16-8.17-18.21-10.21-15.15-17.19-16-35.57c0,0-2-8.85.34-22.3,0,0-5.1,1,.68-11.75,0,0-1.87-37.1-4.08-39.31,0,0,1.19-14.13-3.92-18.22,0,0-1.19-6.13-9.53-7.49,0,0-1.76-7,1.42-7.35s15.6,1.23,19.69,3.27c0,0,5.1-1.36,7.15-1.19l-.69-2.39s-14.46-6.81-14.8-8.34-.51,0-.51,0-26.05-11.57-28.43-12.93S228.55,69.29,228,66.74c0,0-9.7-3.57-9.7-5.45s-3.24-4.76-4.09-18.38c0,0-8.17-12.6-9.7-15.49,0,0-2.21-15.15-3.57-15.32l-3.41-5.45,98,10.56,39,90.89,7.32,91.24Z" transform="translate(181.72 -6.65)"/><polygon class="cls-3" points="355.89 336.2 356.6 339.39 339.75 338.75 346.9 329.05 355.89 336.2"/><path class="cls-3" d="M21.14,114.47l1,85.27,54.63,94.73,97.66,48.38c-2.17-9.83-11.87-32.17-16.34-39.45s-9.06-11.1-11.1-13.78S122.62,275.45,103,265s-10.34-9.58-10.34-9.58c7.41,1,7-1.91,4.22-2.55s-.39-2.55-.39-2.55c3.58-.13,1.41-1.53,1.41-1.53,3.57-1.66-.26-1.66-.26-1.66C94,246.85,90.45,243,90.45,243S78.2,220.55,78.71,218.26,76.16,193,76.16,193L73.6,175.87c3.32-7.66,0-9.19,0-9.19A158.51,158.51,0,0,0,70,147c-11-32.17-20.43-32.68-20.94-34.72s-20.93-9.45-20.93-9.45a59.89,59.89,0,0,0-6.13-1c-1.28,0-4,.13-4.72,1.4S21.14,114.47,21.14,114.47Z" transform="translate(181.72 -6.65)"/><path class="cls-3" d="M267.66,241.25l2.52-2.55a.85.85,0,0,0,.08-1.58,21.46,21.46,0,0,1-2.89-2.89s-.43-.47-1.24.55a28.63,28.63,0,0,1-2.59,2.6s-1.15.55.12,1.44a19.19,19.19,0,0,1,2.77,2.64C266.81,241.93,267.22,241.87,267.66,241.25Z" transform="translate(181.72 -6.65)"/><path class="cls-3" d="M164,271.5c-4-.85-4.13-2.38-4.13-2.38l0-15.74c2.13-1.62,1.23-1.75,1.23-1.75a66.2,66.2,0,0,0-11.57-7.19s-3.23,3.36-4.51,3.66-5.62,3.06-5.62,3.06l-.13,20c-1.7,1.57-1.19,2-1.19,2a22.27,22.27,0,0,1,5.62,2.9c2.09,2,4,.81,4.38.38s4.09-3.62,4.94-3.11,4.72,4,5.36,3.41,2.72-2.13,2.72-2.13C164.52,272.65,164,271.5,164,271.5Zm-14.81-.08c-1.89-.66-3.08-1.59-3-3L146,253.08c.07-1.72.55-2.83,2.34-2l4.9,3.91.17,15.11S150.94,273,149.2,271.42Z" transform="translate(181.72 -6.65)"/><path class="cls-3" d="M220.94,271.76c-4-.85-4.13-2.38-4.13-2.38l.05-15.75c2.12-1.62,1.23-1.74,1.23-1.74a66,66,0,0,0-11.57-7.19s-3.24,3.36-4.51,3.65-5.62,3.07-5.62,3.07l-.13,20c-1.7,1.58-1.19,2-1.19,2a22,22,0,0,1,5.62,2.89c2.08,2,4,.81,4.38.39s4.08-3.62,4.94-3.11,4.72,4,5.36,3.4,2.72-2.12,2.72-2.12C221.45,272.91,220.94,271.76,220.94,271.76Zm-14.89-.34c-1.89-.66-3.08-1.59-3-3l-.22-15.32c.07-1.72.55-2.83,2.34-2l4.9,3.91.17,15.11S207.79,273,206.05,271.42Z" transform="translate(181.72 -6.65)"/><path class="cls-3" d="M121.2,232.7a23.36,23.36,0,0,1,6.12,3.65,8.62,8.62,0,0,0,5.49,1.2,21.29,21.29,0,0,1,2.64-1.15c.21,0,.6.51-2.25,2.34s-4.73,3.4-7.71,3.27-3.53-.59-8.42-3.74-9.41,3.23-11,6.43-3.28,13.14,2.42,20.08,9.62,7.57,15.62,6.21,4.3-9.78.94-11.57c0,0-2.43,0-3.37-.64s-3.31-2-4.34-1a5,5,0,0,1-2.55,1.32c-.34.09.72-3.19,4-5.53s3.87-2,8.38,0c0,0,4.13.55,6.47-.22,0,0,1.24.09-.17,1.79,0,0,1.75,3.45,1.41,6.34s-3.32,7.92-6.09,9.87-5.62,3.88-8.89,4.77-6.94,1.62-11.75-.85-9-8.17-9.83-12.17-2.21-9.49,1.15-16.6S112,233.63,115.84,233,121.2,232.7,121.2,232.7Z" transform="translate(181.72 -6.65)"/><path class="cls-3" d="M164.64,248.74c0-.13,5.75-4.77,5.92-4.77s.59-.64,3.06,2.17,1,2.51,2.64,2.21c0,0,5.53-4.72,5.83-4.59s.81-.55,2,.89,4.72,4.47,5,4.81-.09,3.36-.21,3.49-.05,17-.05,17,.81,2.77,2.94,1.19c0,0,2.64-.59.26,1.24s-4.9,4.51-5.37,4.34.05,1.1-3-1.87a11.76,11.76,0,0,1-2-2.52c-.17-.68.6-3.65.6-5s-.13-15.1-.13-15.1-2.17-3.11-4-3.07L174.73,252l-.13,18.21,2,2.35s.13.51-.63,1.1-4.13,3-4.13,3a1.32,1.32,0,0,1-1.7-.34c-.9-.89-3.83-3.4-3.83-3.4a.78.78,0,0,1,.46-1.07l1.41-1.66,0-20.08a2,2,0,0,0-2.09-1.28C165.31,249.22,164.78,249.26,164.64,248.74Z" transform="translate(181.72 -6.65)"/><path class="cls-3" d="M222.43,250.7s7.41-3.2,9.79-6.35c0,0,2.93.52,7.62,3.45,0,0,.63,1.41-2.6,4.64a41.16,41.16,0,0,1-5-1.91s-.56-.39-.68,1.74.21,17.62.21,17.62,4.09,2.34,4.94,1.74,2.08-1.74,2.38-1.62,2.21.05,1.49,1.45-6.72,5.36-6.72,5.36a3.78,3.78,0,0,1-2.3-.81,34.65,34.65,0,0,0-7.7-2.46c-.64,0-.05-1.15.17-1.15s1.1-1.87,1.1-1.87,0-18.09-.47-18.35.56-.68-1.7-1.1C222.57,251.15,222.38,251,222.43,250.7Z" transform="translate(181.72 -6.65)"/><path class="cls-3" d="M240.9,250.61s7.4-3.19,9.79-6.34c0,0,2.93.51,7.61,3.45,0,0,.64,1.4-2.59,4.63a41.16,41.16,0,0,1-5-1.91s-.56-.38-.68,1.74.21,17.62.21,17.62,4.08,2.34,4.93,1.75,2.09-1.75,2.39-1.62,2.21,0,1.49,1.45-6.73,5.36-6.73,5.36a3.74,3.74,0,0,1-2.29-.81,34.13,34.13,0,0,0-7.71-2.47c-.64,0,0-1.15.17-1.15s1.11-1.87,1.11-1.87,0-18.09-.47-18.34.55-.68-1.7-1.11C241,251.07,240.85,251,240.9,250.61Z" transform="translate(181.72 -6.65)"/><path class="cls-3" d="M264.09,250.14s-2.72-2.13-1.57-2.47c0,0,3.74-3.44,4.29-3.4a1.47,1.47,0,0,1,1.28.47c.55.51,4,3,4.13,3.19s.25.47-.3,1.06-1.45,1.32-1.4,1.71.12,19.83.12,19.83.39,1.48,1.54.76,1.1-1.06,1.78-.64,1.41,1.11.56,1.66-5.2,4.3-5.2,4.3-.85,1.15-2.25-.51a36.76,36.76,0,0,0-4.6-4s-.38-.09,1-1.24c0,0,1.11-2.17.81-3S264.09,250.14,264.09,250.14Z" transform="translate(181.72 -6.65)"/><path class="cls-3" d="M287.89,264.15l3.89-4a1.31,1.31,0,0,0,.14-2.44,33.36,33.36,0,0,1-4.5-4.5s-.66-.72-1.91.86a43.19,43.19,0,0,1-4,4s-1.79.86.2,2.25a29.45,29.45,0,0,1,4.29,4.1C286.55,265.2,287.19,265.1,287.89,264.15Z" transform="translate(181.72 -6.65)"/><path class="cls-4" d="M269.87,239.07l2.51-2.55a.85.85,0,0,0,.09-1.58,21.13,21.13,0,0,1-2.9-2.89s-.42-.47-1.23.55a28.27,28.27,0,0,1-2.6,2.6s-1.15.55.13,1.45a18.78,18.78,0,0,1,2.77,2.63C269,239.75,269.42,239.69,269.87,239.07Z" transform="translate(181.72 -6.65)"/><path class="cls-4" d="M166.21,269.33c-4-.85-4.13-2.39-4.13-2.39l0-15.74c2.12-1.62,1.23-1.75,1.23-1.75a66.58,66.58,0,0,0-11.57-7.19s-3.24,3.36-4.51,3.66-5.62,3.07-5.62,3.07l-.13,20c-1.7,1.57-1.19,2-1.19,2a22,22,0,0,1,5.62,2.89c2.08,2,4,.81,4.38.38s4.08-3.61,4.94-3.1,4.72,3.95,5.36,3.4,2.72-2.13,2.72-2.13C166.72,270.48,166.21,269.33,166.21,269.33Zm-14.81-.09c-1.89-.65-3.08-1.59-3-3l-.21-15.32c.06-1.72.54-2.83,2.34-2l4.89,3.92.17,15.1S153.15,270.82,151.4,269.24Z" transform="translate(181.72 -6.65)"/><path class="cls-4" d="M223.15,269.58c-4-.85-4.13-2.38-4.13-2.38l0-15.75c2.13-1.61,1.24-1.74,1.24-1.74a65.7,65.7,0,0,0-11.58-7.19s-3.23,3.36-4.51,3.66-5.62,3.06-5.62,3.06l-.12,20c-1.71,1.58-1.19,2-1.19,2a22.08,22.08,0,0,1,5.61,2.89c2.09,2.05,4.05.81,4.39.39s4.08-3.62,4.93-3.11,4.73,4,5.36,3.41,2.73-2.13,2.73-2.13C223.66,270.73,223.15,269.58,223.15,269.58Zm-14.9-.34c-1.88-.65-3.07-1.59-3-3L205,250.9c.06-1.72.54-2.83,2.34-2l4.89,3.92.17,15.1S210,270.82,208.25,269.24Z" transform="translate(181.72 -6.65)"/><path class="cls-4" d="M123.4,230.52a23.38,23.38,0,0,1,6.13,3.66,8.55,8.55,0,0,0,5.49,1.19,22.91,22.91,0,0,1,2.64-1.15c.21,0,.59.51-2.26,2.34s-4.72,3.4-7.7,3.28-3.53-.6-8.42-3.75-9.41,3.24-11,6.43-3.27,13.15,2.43,20.08,9.62,7.58,15.62,6.22,4.29-9.79.93-11.58c0,0-2.42,0-3.36-.64s-3.32-2-4.34-1a4.91,4.91,0,0,1-2.55,1.32c-.34.09.72-3.19,4-5.53s3.87-2,8.38,0c0,0,4.13.55,6.47-.21,0,0,1.23.08-.17,1.78,0,0,1.74,3.45,1.4,6.34s-3.32,7.92-6.08,9.88-5.62,3.87-8.9,4.76-6.93,1.62-11.74-.85-9-8.17-9.83-12.17-2.21-9.49,1.15-16.59,12.51-12.86,16.38-13.54S123.4,230.52,123.4,230.52Z" transform="translate(181.72 -6.65)"/><path class="cls-4" d="M166.85,246.56c0-.13,5.74-4.77,5.91-4.77s.6-.63,3.07,2.17,1,2.52,2.64,2.22c0,0,5.53-4.73,5.83-4.6s.81-.55,1.95.9,4.73,4.46,5,4.8-.09,3.37-.22,3.49,0,17,0,17,.81,2.77,2.94,1.2c0,0,2.63-.6.25,1.23s-4.89,4.51-5.36,4.34,0,1.11-3-1.87a11.6,11.6,0,0,1-2-2.51c-.17-.68.6-3.66.6-5s-.13-15.11-.13-15.11-2.17-3.11-4-3.06l-3.36,2.8L176.81,268l2,2.34s.13.51-.64,1.1-4.13,3-4.13,3a1.32,1.32,0,0,1-1.7-.35c-.89-.89-3.83-3.4-3.83-3.4a.77.77,0,0,1,.47-1.06l1.4-1.66,0-20.09a1.93,1.93,0,0,0-2.08-1.27C167.51,247,167,247.08,166.85,246.56Z" transform="translate(181.72 -6.65)"/><path class="cls-4" d="M224.64,248.52s7.4-3.19,9.78-6.34c0,0,2.94.51,7.62,3.44,0,0,.64,1.41-2.59,4.64a41.58,41.58,0,0,1-5-1.91s-.55-.39-.68,1.74.22,17.62.22,17.62,4.08,2.34,4.93,1.74,2.09-1.74,2.39-1.61,2.21,0,1.48,1.44-6.72,5.37-6.72,5.37a3.87,3.87,0,0,1-2.3-.81,34.07,34.07,0,0,0-7.7-2.47c-.64,0,0-1.15.17-1.15s1.11-1.87,1.11-1.87,0-18.09-.47-18.34.55-.68-1.7-1.11C224.78,249,224.59,248.86,224.64,248.52Z" transform="translate(181.72 -6.65)"/><path class="cls-4" d="M243.11,248.43s7.4-3.19,9.78-6.34c0,0,2.94.51,7.62,3.45,0,0,.64,1.4-2.6,4.64a43.38,43.38,0,0,1-5-1.92s-.55-.38-.68,1.75.21,17.61.21,17.61,4.09,2.34,4.94,1.75,2.09-1.75,2.38-1.62,2.22,0,1.49,1.45-6.72,5.36-6.72,5.36a3.78,3.78,0,0,1-2.3-.81,34.59,34.59,0,0,0-7.7-2.47c-.64,0,0-1.15.17-1.15s1.11-1.87,1.11-1.87,0-18.08-.47-18.34.55-.68-1.7-1.1C243.24,248.89,243.05,248.78,243.11,248.43Z" transform="translate(181.72 -6.65)"/><path class="cls-4" d="M266.3,248s-2.73-2.12-1.58-2.46c0,0,3.75-3.45,4.3-3.41a1.49,1.49,0,0,1,1.28.47c.55.51,4,3,4.12,3.19s.26.47-.29,1.07-1.45,1.31-1.41,1.7.13,19.83.13,19.83.38,1.49,1.53.76,1.11-1.06,1.79-.63,1.4,1.1.55,1.65-5.19,4.3-5.19,4.3-.85,1.15-2.25-.51a36.76,36.76,0,0,0-4.6-4s-.38-.09,1-1.23c0,0,1.1-2.17.81-3S266.3,248,266.3,248Z" transform="translate(181.72 -6.65)"/><path class="cls-4" d="M290.09,262l3.9-4a1.31,1.31,0,0,0,.13-2.44,33.86,33.86,0,0,1-4.49-4.49s-.66-.73-1.92.86a43.23,43.23,0,0,1-4,4s-1.78.86.2,2.24a29.76,29.76,0,0,1,4.3,4.1C288.76,263,289.4,262.93,290.09,262Z" transform="translate(181.72 -6.65)"/><use transform="translate(0 93.43) scale(0.29)" xlink:href="#image"/><path class="cls-3" d="M81.86,82.94l4-5.61s.68-2,2.89-.68,4.34,2.63,6.81,2.38,4.17-.17,6.3-2-.6,4.85-2.13,5.62c0,0-2,3.15-7.92,3.4,0,0-4-.59-5.7-2s-2.47.09-3,1.87.6,4,3.41,6,8.93,2.21,13.19,7.75-.77,14.63-4.34,18.72-2.13,2-8.17,0S77,118.26,76,120.48s-1-2.81,4.09-7.66,14.3.76,15.32.85,3.58-5.17-.34-8.43c-2-1.67-7.08-3.61-11.45-5.68-3.33-1.57-5.69-4-5.91-6.15C77.18,88.65,81.86,82.94,81.86,82.94Z" transform="translate(181.72 -6.65)"/><path class="cls-3" d="M143.3,115.54c-2.46,1-4.59-2-4.59-2l-.51-34.22s.17-3.31-.6-3.14-5.7,2.72-5.7,2.72.68,30.89.25,33.87-2.72,2.55-3.74,2.13a11.57,11.57,0,0,1-2.47-1.79V97.24c2.55-1.7,1.36-2.21,1.36-2.21-3.4-2.38-11.74-6.89-11.74-6.89-.85,2.21-9.87,6.21-9.87,6.21l-.34,20.42c-1.62,1.45-1.2,2.13-1.2,2.13,1.79.6,7.41,4.26,8.77,4.09s5.28-4.34,5.87-4.17,4.77,3.91,5.53,3.83,2.73-2.3,2.73-2.3a6.67,6.67,0,0,0,2.72-2c4.68.51,7.41,4.68,8.85,4.17S145.77,114.52,143.3,115.54Zm-28.42-.6-2.21-1.61-.26-15.58s-.77-4.51,1.45-3.15a26.11,26.11,0,0,1,5.44,4.17l.26,15.24S116.92,116.65,114.88,114.94Z" transform="translate(181.72 -6.65)"/><path class="cls-3" d="M151.37,79.41s-5.28,2.22-6.56,6.9c0,0-1.27,2.72,2.64,8.25,0,0,.45,12.72.41,13s-.13,5.15-.26,5.7a12.39,12.39,0,0,1-1.66,2.34,18.22,18.22,0,0,1,11.53,5.24,34.45,34.45,0,0,1,10.43-5.66l.17-20.56a1.62,1.62,0,0,0-.34-2.25c-1.24-1.11-4.3-4.55-4.64-4.55s0-.69-3.87,2.55c0,0-.94.81,1.66,2.55v18.9c-.35.38-1.12.3-2.43-.35l-5.27-2.63-.09-16.22a1.3,1.3,0,0,0-.13-2.08c-2.49-1.87-3.91-4-4-6.51a7.14,7.14,0,0,1,2.68-3.83C152.15,79.6,152,79.37,151.37,79.41Z" transform="translate(181.72 -6.65)"/><path class="cls-3" d="M197.05,115.2c-4-.85-4.13-2.38-4.13-2.38l0-15.75c2.13-1.62,1.24-1.74,1.24-1.74a65.7,65.7,0,0,0-11.58-7.19s-3.23,3.36-4.51,3.66-5.62,3.06-5.62,3.06l-.12,20c-1.7,1.58-1.19,2-1.19,2a22.08,22.08,0,0,1,5.61,2.89c2.09,2,4.05.81,4.39.39s4.08-3.62,4.93-3.11,4.73,4,5.36,3.4,2.73-2.12,2.73-2.12C197.56,116.35,197.05,115.2,197.05,115.2ZM182.24,115c-1.89-.66-3.08-1.59-3-3L179,96.69c.06-1.72.54-2.83,2.34-2l4.89,3.91.17,15.11S184,116.6,182.24,115Z" transform="translate(181.72 -6.65)"/><path class="cls-3" d="M197.73,91.71S206,80.05,206.92,80c0,0,.6-1.66.34,8.46-.44.9,2.34.82,5,.77a2.16,2.16,0,0,1-.21,3.11s-5.4-.3-5.06,1.1l0,19.83s3.19,3.45,4.3,2,1.7-.42,1.58-.13,0,.77-2.73,2.69-3.23,3.48-4.42,2.68-6.43-4.43-7.24-4.39.51-1.53,1-1.78,1.32-4.73,1.19-7.24,0-13.27,0-13.27.68-1.37-1.49-1.58S197.73,91.71,197.73,91.71Z" transform="translate(181.72 -6.65)"/><path class="cls-3" d="M236.07,92.94c-.72,0-10.89-4.72-10.89-4.72-2.43,2.13-9,5.36-9,5.36s.22,19.32-.46,20.09a6.58,6.58,0,0,0-1.07,2.21c4.56.43,11.92,5,11.92,5,.38-.72,9.4-5.23,9.4-5.23l0-19A9.62,9.62,0,0,0,236.07,92.94Zm-9.23,21.75c-3.37-1.15-4-1.7-4-1.7l-.09-18.51s-.42-1.62.94-.85l4.51,1.74s1.49.13,1.36,2.47,0,17.1,0,17.1S230.2,115.84,226.84,114.69Z" transform="translate(181.72 -6.65)"/><path class="cls-3" d="M239,92.6s6.3-5.19,6.51-5.19a16.1,16.1,0,0,1,4.77,4.73l6-4.6a7.5,7.5,0,0,1,3.19,5.87c.13,4-5.15,6.26-5.15,6.26s.47-6.6-1.92-6.9l-2.55,2.13-.21,18.21s3.32,4.43,4.34,2c0,0,1.11-1.41,2.34-.94s-5.66,5.32-7.06,6.55c0,0-6.13-4.51-8.09-4.72,0,0-1.19-.17,1.32-2.25,0,0,1.4-17.32,0-20.56,0,0-.59-2.08-2.81,0C239,93.4,238.62,93.32,239,92.6Z" transform="translate(181.72 -6.65)"/><path class="cls-3" d="M282.67,96.26c-3.71-4-9-8.93-9.2-8.93s-8.17,4.3-8.17,4.3a13.85,13.85,0,0,0-3.83,2.21c-.08.17.8,1.06,2,1.4,0,0,.93,19-.17,19.62s-1.66,1.83-1.32,1.87a42,42,0,0,1,7.4,3c3,1.62,3.41.81,3.41.81,9-5.92,8.17-6.64,8.17-6.64-.77-2-4.94,1.53-4.94,1.53-1.43,1.09-3.4-.08-5.45-1.53-1-2.34.05-6.47.05-6.47l10.46-9.27C282.75,96.86,282.67,96.26,282.67,96.26ZM275,100.05l-4,3.49s-.73,1.28-1-4.13c-.25-3.1.12-5.91.64-5.7s4.8,4.68,4.8,4.68A1.19,1.19,0,0,1,275,100.05Z" transform="translate(181.72 -6.65)"/><path class="cls-4" d="M84.51,81.12l4-5.62s.68-2,2.89-.68,4.34,2.64,6.81,2.38,4.17-.17,6.3-2-.6,4.85-2.13,5.62c0,0-2,3.15-7.91,3.4,0,0-4-.59-5.71-2s-2.46.09-3,1.87.59,4,3.4,6,8.94,2.21,13.19,7.75-.77,14.63-4.34,18.72-2.13,2-8.17,0-10.21-.09-11.23,2.13-1-2.81,4.08-7.66,14.3.76,15.32.85,3.58-5.17-.34-8.43c-2-1.67-7.08-3.61-11.45-5.68-3.33-1.57-5.69-4-5.91-6.15C79.83,86.82,84.51,81.12,84.51,81.12Z" transform="translate(181.72 -6.65)"/><path class="cls-4" d="M146,113.71c-2.47,1-4.6-2-4.6-2l-.51-34.21s.17-3.32-.6-3.15-5.7,2.72-5.7,2.72.68,30.89.26,33.87-2.73,2.56-3.75,2.13a11.57,11.57,0,0,1-2.47-1.79V95.41c2.56-1.7,1.37-2.21,1.37-2.21-3.41-2.38-11.75-6.89-11.75-6.89-.85,2.21-9.87,6.21-9.87,6.21L108,113c-1.62,1.44-1.19,2.12-1.19,2.12,1.78.6,7.4,4.26,8.76,4.09s5.28-4.34,5.87-4.17,4.77,3.91,5.54,3.83,2.72-2.3,2.72-2.3a6.59,6.59,0,0,0,2.72-2c4.68.51,7.41,4.68,8.85,4.17S148.42,112.69,146,113.71Zm-28.43-.59-2.21-1.62-.26-15.58s-.76-4.51,1.45-3.14A25.8,25.8,0,0,1,122,97l.25,15.23S119.57,114.82,117.53,113.12Z" transform="translate(181.72 -6.65)"/><path class="cls-4" d="M154,77.58s-5.28,2.22-6.55,6.9c0,0-1.28,2.72,2.63,8.25,0,0,.45,12.73.41,13s-.13,5.15-.26,5.7a12,12,0,0,1-1.66,2.34A18.27,18.27,0,0,1,160.13,119a34.4,34.4,0,0,1,10.42-5.66l.17-20.55a1.63,1.63,0,0,0-.34-2.26c-1.23-1.11-4.3-4.55-4.64-4.55s0-.68-3.87,2.55c0,0-.94.81,1.66,2.55V110c-.34.38-1.12.31-2.43-.34L155.83,107l-.09-16.21s1.19-1.2-.13-2.09c-2.49-1.86-3.91-4-4-6.51a7.14,7.14,0,0,1,2.68-3.83C154.8,77.77,154.64,77.55,154,77.58Z" transform="translate(181.72 -6.65)"/><path class="cls-4" d="M199.7,113.37c-4-.85-4.13-2.38-4.13-2.38l0-15.75c2.13-1.61,1.24-1.74,1.24-1.74a65.7,65.7,0,0,0-11.58-7.19S182,89.67,180.76,90,175.15,93,175.15,93l-.13,20c-1.7,1.58-1.19,2-1.19,2a21.89,21.89,0,0,1,5.61,2.89c2.09,2,4.05.81,4.39.39s4.08-3.62,4.93-3.11,4.73,4,5.37,3.4,2.72-2.12,2.72-2.12C200.21,114.52,199.7,113.37,199.7,113.37Zm-14.81-.17c-1.89-.65-3.08-1.59-3-3l-.21-15.32c.06-1.72.54-2.83,2.34-2l4.89,3.92.17,15.1S186.64,114.78,184.89,113.2Z" transform="translate(181.72 -6.65)"/><path class="cls-4" d="M200.38,89.88s8.3-11.66,9.19-11.74c0,0,.6-1.66.34,8.46-.44.9,2.34.82,5,.77a2.14,2.14,0,0,1-.21,3.11s-5.4-.3-5.06,1.1l0,19.83s3.2,3.45,4.3,2,1.7-.42,1.58-.12,0,.76-2.73,2.68-3.23,3.49-4.42,2.68-6.43-4.43-7.24-4.39.51-1.53,1-1.78,1.32-4.73,1.19-7.24,0-13.27,0-13.27.68-1.37-1.49-1.58S200.38,89.88,200.38,89.88Z" transform="translate(181.72 -6.65)"/><path class="cls-4" d="M238.72,91.12c-.72,0-10.89-4.73-10.89-4.73-2.43,2.13-9,5.36-9,5.36s.21,19.32-.47,20.09a6.58,6.58,0,0,0-1.07,2.21c4.56.43,11.92,5,11.92,5,.38-.72,9.4-5.23,9.4-5.23l0-19A9.76,9.76,0,0,0,238.72,91.12Zm-9.23,21.74c-3.36-1.15-4-1.7-4-1.7l-.09-18.51s-.42-1.62.94-.85l4.51,1.74s1.49.13,1.36,2.47,0,17.11,0,17.11S232.85,114,229.49,112.86Z" transform="translate(181.72 -6.65)"/><path class="cls-4" d="M241.61,90.78s6.3-5.2,6.52-5.2a16.24,16.24,0,0,1,4.76,4.73l6-4.6A7.53,7.53,0,0,1,262,91.58c.13,4-5.15,6.26-5.15,6.26s.47-6.6-1.91-6.89l-2.56,2.12-.21,18.22s3.32,4.42,4.34,2c0,0,1.11-1.41,2.34-.94s-5.66,5.32-7.06,6.56c0,0-6.13-4.52-8.09-4.73,0,0-1.19-.17,1.32-2.25,0,0,1.41-17.32,0-20.56,0,0-.59-2.08-2.8,0C241.66,91.58,241.27,91.49,241.61,90.78Z" transform="translate(181.72 -6.65)"/><path class="cls-4" d="M285.32,94.43c-3.71-4-9-8.93-9.19-8.93S268,89.8,268,89.8A13.55,13.55,0,0,0,264.13,92c-.09.17.79,1.07,2,1.4,0,0,.93,19-.17,19.62s-1.66,1.83-1.32,1.87a42.81,42.81,0,0,1,7.4,3c3,1.62,3.41.81,3.41.81,9-5.91,8.17-6.64,8.17-6.64-.77-2-4.94,1.53-4.94,1.53-1.43,1.1-3.4-.07-5.45-1.53-1-2.34.05-6.47.05-6.47l10.47-9.27C285.4,95,285.32,94.43,285.32,94.43Zm-7.66,3.79-4,3.49s-.73,1.28-1-4.13c-.25-3.1.13-5.91.64-5.7s4.81,4.68,4.81,4.68A1.2,1.2,0,0,1,277.66,98.22Z" transform="translate(181.72 -6.65)"/><use transform="matrix(0.29, 0, 0, -0.29, 320.93, 253.09)" xlink:href="#image"/></g><circle class="cls-3" cx="358.67" cy="170.21" r="35.43"/></svg>