<svg xmlns="http://www.w3.org/2000/svg" viewBox="0 0 483.02 509.86"><defs><style>.cls-1{fill:#e2ffe0;stroke:#000;}.cls-2{fill:#010400;}.cls-3{fill:#010800;}.cls-4{fill:#020c00;}.cls-5{fill:#021000;}.cls-6{fill:#031400;}.cls-7{fill:#031800;}.cls-8{fill:#041c00;}.cls-9{fill:#042000;}.cls-10{fill:#052400;}.cls-11{fill:#052800;}.cls-12{fill:#062c00;}.cls-13{fill:#063000;}.cls-14{fill:#073400;}.cls-15{fill:#073800;}.cls-16{fill:#083c00;}.cls-17{fill:#084000;}.cls-18{fill:#094400;}.cls-19{fill:#094800;}.cls-20{fill:#0a4c00;}.cls-21{fill:#0a5000;}.cls-22{fill:#0b5400;}.cls-23{fill:#0b5800;}.cls-24{fill:#0c5c00;}.cls-25{fill:#0c6000;}.cls-26{fill:#0d6400;}.cls-27{fill:#0d6800;}.cls-28{fill:#0e6c00;}.cls-29{fill:#0e7000;}.cls-30{fill:#0f7400;}.cls-31{fill:#0f7800;}.cls-32{fill:#107c00;}.cls-33{fill:#108000;}.cls-34{fill:#118400;}.cls-35{fill:#180;}.cls-36{fill:#128c00;}.cls-37{fill:#129000;}.cls-38{fill:#139400;}.cls-39{fill:#139800;}.cls-40{fill:#149c00;}.cls-41{fill:#14a000;}.cls-42{fill:#15a400;}</style></defs><g id="Vrstva_3" data-name="Vrstva 3"><path class="cls-1" d="M46.89,402.34s-18.55,18.21,1.71,24.34L113.11,460C118,461.9,130.9,445.92,148,420.55c2.08-.65,3.14,4.23,2.89,16.34l.17,298.9s1.71,9,44.77,11.06,188.6,1.7,205.11-4.94,8.17-15.83,8.17-15.83V423.45c1.35-3.94,2.81-5.77,4.59-.52,6.75,12.31,16,24.82,31.15,37.79a591.2,591.2,0,0,0,75.41-41.36s3.74-1.87-4.09-14-57-106.89-75.23-119.32c0,0-1.37-5.61-36.43-12.93s-52.42-22.13-74.21-34c0,0-78.64,4.43-99.58.52-28.75,14.94-55.56,27.82-74.21,32,0,0-24.55,6.23-34.72,11.74C109.85,289.83,45.3,402.46,46.89,402.34Z" transform="translate(-38.63 -238.6)"/></g><g id="Vrstva_2" data-name="Vrstva 2"><path d="M179.45,405.94c-1,1.84-.42,2.71.66,4.38a5.76,5.76,0,0,1,1.86,2.27,8.47,8.47,0,0,0,.1,1.74,10.23,10.23,0,0,0,1.13,2.15c1.05,1.59,2.58,2.38,3,4.43.33,1.57-.46,2.93-.22,4.4.37,2.23,1.38,4.16,3.71,4.89,5.85,1.82,6.42-4.77,8.62-8.08,1.74-2.61,1.78-1.72,3.68-3.17a4.88,4.88,0,0,0,1.68-2.28c1.21-3.11-1.82-7.48.81-9.95,1.41-1.32-.71-3.44-2.12-2.12-3.79,3.55.63,9.19-3.39,12.44-1.17.94-2.58,1-3.62,2.39-1.16,1.5-.73,3.16-1.5,4.68q.27,2.44-2.49.68-3.06.61-2.16-1.45a12.6,12.6,0,0,1,.09-1.82,9.86,9.86,0,0,0-2-5,18.75,18.75,0,0,1-1.64-2.51c-.46-1-.43-2.25-.89-3.12-.27-.52-2.86-3.14-2.7-3.44.89-1.71-1.7-3.23-2.59-1.51Z" transform="translate(-38.63 -238.6)"/><path d="M235,406.7c.33,2.21,1.23,5.08,1.05,7.28s-1.2,2.13-1.62,3.68a6.27,6.27,0,0,0,1.26,6.33,18.76,18.76,0,0,0,3.49,2.71c2.15,1.61,3.29,3.43,4.9,5.43a8.32,8.32,0,0,0,5.78,3.11c6.46.86,8.35-3.29,8.13-8.88-.15-3.88,1.38-5.11,4.5-7.39,1.51-1.12,3.33-1.9,4.76-3.14,2.69-2.35,3.43-5.15,3.91-8.61.26-1.89-2.63-2.71-2.89-.8-.65,4.69-2.49,6.86-6.47,9.42-1.75,1.13-3.89,2.21-5.26,3.84a7.24,7.24,0,0,0-1.65,4.79,26.09,26.09,0,0,1,.22,3.16c-.34,2.23-3.33,5.69-6.11,4.4s-3.73-4.24-5.81-6.15c-2.77-2.56-6.52-3.15-5.06-8.28,1.16-4.07.41-7.4-.24-11.69-.28-1.91-3.17-1.1-2.89.79Z" transform="translate(-38.63 -238.6)"/><path d="M282.4,407.59c.75,3.27,1.78,6.7.8,9.93-.54,1.78-1.68,3.19-2.07,5a8.54,8.54,0,0,0,.24,4.4,6.79,6.79,0,0,0,.68,1.53c-.8-1.21,3.35,4.55,2.59,1.91l-.69,1.69c2.7-1.47,2.55-3.82,2.76-6.69.38-5.33-.9-12.32,1-17.3.7-1.8-2.2-2.58-2.89-.8-1.19,3.1-.76,6.33-.79,9.58,0,2.78.79,11.31-1.61,12.62a1.53,1.53,0,0,0-.69,1.7c1.07,3.74,6.17,2.56,5.08-1.27-.5-1.74-2.14-2.52-2.54-4.43-.59-2.83,1.45-4.36,2.31-6.81,1.19-3.42-.54-8.53-1.3-11.87-.43-1.88-3.33-1.09-2.9.79Z" transform="translate(-38.63 -238.6)"/><path d="M291.41,407.56c1.32,4.39,4.22,7.33,2.87,12.38-.8,3-2.59,5.22-1.22,8.3,1.06,2.36,3.29,3.72,5.57,4.71,2.59,1.13,6.64,3.07,9.45,3.05,5.24,0,4.67-6.49,2.44-9.56-1.87-2.6-4.61-3.34-1.57-8.08.92-1.44,2.65-2.36,3.64-3.81,1.7-2.49.49-5.24,1.88-7.6a1.5,1.5,0,0,0-2.59-1.52c-1.48,2.52-.51,5.52-2.21,8-1.31,1.92-3.59,3-4.65,5.21a6.14,6.14,0,0,0-.4,4.82c.76,2.17,3.46,3.48,4.09,5.53l-.92,3.84-3.7-1.18a29.66,29.66,0,0,1-5.14-1.84c-4.95-2.7-2.82-5.17-1.78-9.09a15.32,15.32,0,0,0,.3-6.39c-.48-3-2.33-4.82-3.17-7.59-.56-1.84-3.45-1.05-2.89.8Z" transform="translate(-38.63 -238.6)"/><path d="M327.16,406.31c-.19,3.45-1,7.37-.22,10.79.84,3.88,4.41,5.28,2.64,9.71-1.59,4-1.55,6.58,3.06,6.79,7.9.37,3.9-4.56,4.29-10,.09-1.3.67-2.08.55-3.48-.15-1.63-1.16-3.22-1.33-4.88-.37-3.49.45-6.29-1.21-9.54-.88-1.72-3.47-.21-2.59,1.51,1.42,2.79.57,5.85.87,8.79.24,2.33.93,4.38.81,6.8-.07,1.67-.43,2.77,0,4.52.21.94,1,2,.41,2.81-.83,1.1-2.41.55-2.59-1-.14-1.14,1.58-3.33,1.71-4.64a5.31,5.31,0,0,0-.51-2.92c-1.12-2.55-3.22-3.9-3.31-7-.08-2.74.29-5.57.44-8.3.11-1.93-2.89-1.93-3,0Z" transform="translate(-38.63 -238.6)"/><path d="M344.71,407c-.4,1.76,0,2.93.44,4.62a6.65,6.65,0,0,1,.11,4.36c-.42,1.2-1.31,2.16-1.8,3.34-1.46,3.54-.29,5.86,2.65,8.05,1.08.81,2.54-.52,2.2-1.69-1.07-3.74,2.07-5.66,2.78-9s.54-6.4,1.52-9.6c.57-1.85-2.33-2.64-2.9-.8-1.16,3.8-.66,8.8-2.65,12.11-1.66,2.76-2.58,4.78-1.64,8.06l2.2-1.7c-4.2-3.13.92-6.61,1.17-10.18.16-2.34-1.7-4.49-1.19-6.8.42-1.88-2.48-2.68-2.89-.8Z" transform="translate(-38.63 -238.6)"/><path d="M392.1,406.42c.24,3.36.34,6.77.77,10.11.52,4,2.66,7.14.77,11.23l2.75,1.16c.81-3.49-.06-6.8.25-10.29.17-1.87,1-3.64,1-5.53,0-2.3-1.07-4.27-.31-6.66.59-1.85-2.31-2.64-2.89-.8a8,8,0,0,0-.4,3.5q.36,2,.6,4c-.21,1.26-.47,2.49-.78,3.72-.6,3.79.51,7.55-.37,11.3-.37,1.57,2,2.77,2.75,1.16,1.49-3.25,1.8-5.59.67-9-1.47-4.46-1.48-9.18-1.81-13.85-.14-1.91-3.14-1.92-3,0Z" transform="translate(-38.63 -238.6)"/><path d="M188.12,411c.12,2.05,1.33,2.74,2,4.51l.39-1.46c-1.1,1.27-6.21-6.21-6.54-6.67l-.9,2.2c3.72-1.23,7.47-.78,11.3-.52,1.05.07,3.49-.23,4.39.3.54-.17.73-.11.58.18l-.46,2.79c-.56,3.24-2.53,4.22-4.18,6.73a26.2,26.2,0,0,1-1.38,2.57q-.89,2.34-3.88.55a16.46,16.46,0,0,1,.29-2.89,9.85,9.85,0,0,0-.83-5.64c-.36-.72-.75-1.43-1.15-2.13.08-1.92.73-2.48,1.93-1.67,1.34-.05,3.32,1,4.72,1.24.42.07,2.52,0,2.84.28.55-.47.52-.19-.1.82-.18.73-.36,1.46-.53,2.19-1.33,3.22-5.26,5.88-7.71,8.26l2.35.3A13,13,0,0,1,189,415c.26-3.45,2.47-3.56,4.74-2.69a21.35,21.35,0,0,1,4.74,2l-.74-1.29c0,1.31-4.42,4.47-5.51,4.37l1.3.74c-1-1.55-.91-3.9-.63-5.62l-3-.4a36.76,36.76,0,0,1-.58,5.92,1.5,1.5,0,0,0,2.89.8,22.46,22.46,0,0,0,1.34-4.46,1.5,1.5,0,0,0-2.89-.8,45,45,0,0,0-1.61,6.86c-.25,1.59,1.82,2.73,2.74,1.16Q194,417.86,196,414l-2.59-1.52-2.76,6a1.5,1.5,0,0,0,2.59,1.52l3.87-5.63-2.74-1.16a18.19,18.19,0,0,1-.91,3.48c-.59,1.66,1.87,2.54,2.75,1.16a15.38,15.38,0,0,0,1.66-3.53,1.5,1.5,0,0,0-1.45-1.89l-2.65-2.11a1.52,1.52,0,0,0-2.51-.66A2.89,2.89,0,0,0,190,412l2.51-.66-3.57-3.53c-1.38-1.36-3.5.76-2.13,2.12l3.58,3.53a1.51,1.51,0,0,0,2.5-.66l.52-1-2.51-.66a5.26,5.26,0,0,0,5.55,4.31l-1.44-1.9a8.67,8.67,0,0,1-1.36,2.8l2.74,1.16a19.79,19.79,0,0,0,.91-3.48,1.51,1.51,0,0,0-2.75-1.15l-3.87,5.62,2.59,1.52,2.76-6c.78-1.73-1.69-3.26-2.59-1.52q-2,3.86-4.21,7.61l2.74,1.15a46.17,46.17,0,0,1,1.61-6.86l-2.89-.8a23.87,23.87,0,0,1-1.34,4.46l2.89.8a40.94,40.94,0,0,0,.69-6.72c0-1.64-2.67-2.1-2.95-.4-.45,2.81-.8,10,3.81,8.4,2.24-.77,8.82-5.36,6.34-8.27-.68-.8-2.12-1.08-3-1.43-1.66-.63-3.33-1.45-5-1.91a4.35,4.35,0,0,0-5.13,1.6c-2.58,3.65-.61,11,1.75,14.33a1.53,1.53,0,0,0,2.36.31c2.48-2.41,5.88-4.84,7.7-7.81,1.06-1.73,2.42-5.33,1.87-7.33a1.5,1.5,0,0,0-1.05-1.05c-1.5-.29-3-.2-4.53-.43a50.81,50.81,0,0,1-5.5-1.54c-1.87-.48-4-.41-5,1.55s.32,4.17,1.22,5.94c1.31,2.58.91,4.33.74,7a7,7,0,0,0,.57,3.69c2.45,4.78,7.32,1.1,9.07-2.08a16.94,16.94,0,0,1,3.27-4.18,6.6,6.6,0,0,0,1.65-2.12c1-2.23,1.77-6.33,1.33-8.74a1.47,1.47,0,0,0-1.05-1.05c-2.69-.76-6.06-.5-8.85-.69-3.5-.23-6.84-.35-10.2.76a1.51,1.51,0,0,0-.9,2.2c1.72,2.38,7.3,11.84,11.25,7.29a1.49,1.49,0,0,0,.38-1.46c-.51-1.31-1.82-2.29-1.91-3.72-.12-1.92-3.12-1.93-3,0Z" transform="translate(-38.63 -238.6)"/><path d="M237.2,408c1.92,1.46-1.56,10.06-.1,13,1.76,3.56,6.62,4.13,9.38,6.72,2,1.89,4.07,5.53,7.42,4.1,2.94-1.26,2.45-4.72,1.61-7.12a1.52,1.52,0,0,0-2.5-.66c-2,1.54-1.16,2.82-2.15,4.66l.16,1.42a3.78,3.78,0,0,1-4.12-1.54,9.88,9.88,0,0,1-3.42-4.92l-2.21,1.69c2,1.5,4,2.9,6,4.22a1.5,1.5,0,0,0,2.05-.54c1.5-3.39-.94-6.79-2.64-9.73-1.59-2.76-4.39-5.88-4.16-9.27.3-4.65,5-3.26,8.44-2.77,5.24.74,10.16,1.56,15.47.84,2.35-.32.46-.07-.94-.14s-3-.27-4.48-.37q-4.81-.35-9.65-.33c-3.08,0-9.2-1.14-11,2.19-.91,1.73-.91,4.81.7,6,1.17.89,3.18.52,4.54.5a81.52,81.52,0,0,0,8.83-.62c3.89-.47,8.43-.6,11.4-3.44,1.4-1.33-.73-3.45-2.12-2.12-2.35,2.24-7.2,2.34-10.16,2.67-2.7.31-6.12.94-8.84.53H243c.74-1.91,1.92-2.78,3.56-2.63a22.87,22.87,0,0,1,4.82-.1q4.83,0,9.65.33c2.89.2,7.31,1.49,9.18-1.57a2.43,2.43,0,0,0-1.36-3.87c-1.53-.54-3.51.14-5.08.27a45.58,45.58,0,0,1-10.22-.78c-3.18-.47-9.7-2.38-12.55-.41-2.33,1.6-1.7,5.39-1.24,7.79.76,3.94,8.5,12.07,7,15.5l2.06-.54c-2.09-1.32-4.09-2.72-6.05-4.22-1.08-.83-2.54.54-2.21,1.69,1.1,3.78,4.84,8.15,8.76,9.27,6.29,1.79,3-5.35,5.79-7.56l-2.51-.66c1.1,1.62.42,2.41-2,2.35l-.93-1.14a32,32,0,0,1-2.51-2.34c-3.14-2.39-7.58-2.62-7.62-7.48,0-3.7,2.8-8.76-.8-11.5-1.54-1.17-3,1.43-1.52,2.59Z" transform="translate(-38.63 -238.6)"/><path d="M249.42,406.58l-.65.15,3.47.46c.89.52.58.46-.17-.26a7.31,7.31,0,0,0-1.94-1.47,9,9,0,0,0-4.38-.8c-4.5.19-6.19,3.23-7.7,7-1.37,3.43-3.69,7.37-.91,10.69s8.34,4.85,12,6.7c2.07,1.06,5,.65,6.16-1.61,1.64-3.2,4.72-7.31,3-11.07a7.27,7.27,0,0,0-3.47-3.28,10.06,10.06,0,0,0-2.32-.84c-.25-.06-2.68-.62-1.32,0l1.62,6.16c2.82-5.52,13,1.58,14.82-6.14a4.56,4.56,0,0,0-6.61-5.09c-1.71.93-3.42,1.87-5.11,2.83-5,2.85-.51,10.63,4.54,7.77,1.7-1,3.4-1.9,5.11-2.82L259,409.82l-.13.55,2.07-2.69c-.43.19-4.11-.47-5.11-.35a13.19,13.19,0,0,0-3.74,1c-2.51,1.07-5.74,3-7,5.49-1,1.95-.72,5.15,1.61,6.15,1.17.5,3.42.53,4.35,1.3l-1.32-3.18c.09,1.18-1.7,3.81-2.2,4.79l6.15-1.61-5.68-2.9c-.79-.4-4.5-2.71-3.88-1.74l.46,3.47a22.9,22.9,0,0,1,1.52-4.4c.25-.68.52-1.35.8-2-1.46-1-1.82-1.07-1.08-.26.89,2.13,4.27,2.24,6,1.84,5.64-1.29,3.25-10-2.4-8.68Z" transform="translate(-38.63 -238.6)"/><path d="M296.49,411a16.64,16.64,0,0,0,6,2,13.9,13.9,0,0,0,2.66.07q.93-.1,1.86-.27c1-.16.87-.16-.48,0l-3.3-4.34q.12-1.26-.72.42c-.6,1.11-.77,1.09-.53-.06a4.54,4.54,0,0,0-7.52,4.38c1,4.24.26,9.12,3.48,12.46,2.47,2.58,6.45,1.11,7.52-2l.92-2.67-8.84-1.19c-.36.93-.15,1.56.63,1.9-4.3.14-6.34,6.18-2.27,8.39,2.56,1.38,5.12,2.76,7.69,4.12,5.11,2.72,9.66-5.05,4.54-7.77-2.57-1.36-5.13-2.74-7.69-4.12l-2.27,8.38c6.18-.2,8.48-5.35,8.37-10.9-.1-5.21-7.2-5.95-8.84-1.2l-.92,2.66,7.52-2c.49.5-.06-2.06-.17-3a46.64,46.64,0,0,0-1-5.48l-7.52,4.38c3.1,2.68,7.08,4.75,11,2.28,2.68-1.69,5.86-5.79,5.61-9a4.7,4.7,0,0,0-3.3-4.34c-2.73-.92-5.15.59-7.91-.85-5.13-2.67-9.69,5.09-4.54,7.77Z" transform="translate(-38.63 -238.6)"/><path d="M328.35,408.47a34.33,34.33,0,0,0,1.17,9.88c1,3.46,2.54,6.77,1.64,10.42s4.86,5.35,5.79,1.59c1.83-7.42-2.76-14.41-2.6-21.89.09-3.86-5.91-3.86-6,0Z" transform="translate(-38.63 -238.6)"/><path d="M349.17,406.87l.46.55-2.79.75a10.76,10.76,0,0,1,.84,4.89c-.09,1.93,2.91,1.92,3,0a14.09,14.09,0,0,0-1.25-6.4c-.61-1.38-2.87-.66-2.8.76a2.47,2.47,0,0,0,1.74,2.34,1.51,1.51,0,0,0,1.85-1.05,1.54,1.54,0,0,0-1.05-1.84Z" transform="translate(-38.63 -238.6)"/></g><g id="Vrstva_1" data-name="Vrstva 1"><path d="M290.83,401.45v5.42h24.11v-5.42S290.83,401.36,290.83,401.45Z" transform="translate(-38.63 -238.6)"/><path d="M178.77,353.14V407H202.7c13.13-4.48,22.07-12.3,22.43-27-.4-13.16-7.74-22.11-22.25-26.73H187.56v5.51h11c11.82,1.2,20,7.18,21.86,21.31-1.71,12.52-8.56,18.89-18.87,21.12h-17.2V353.23Z" transform="translate(-38.63 -238.6)"/><path d="M234.66,353.23v53.64h36.26v-5.51H240.27V358.65h29.62v-5.51S234.43,353,234.66,353.23Z" transform="translate(-38.63 -238.6)"/><path d="M243.54,376.22v6.45h23.27v-6.54S243.44,376.13,243.54,376.22Z" transform="translate(-38.63 -238.6)"/><path d="M282,353.23V407h5.61V353.14S282.09,353.09,282,353.23Z" transform="translate(-38.63 -238.6)"/><path d="M310.64,353.23h39.44v5.51H310.64S310.5,353.37,310.64,353.23Z" transform="translate(-38.63 -238.6)"/><path d="M327,361.83V407h7.76V361.83S327.09,361.73,327,361.83Z" transform="translate(-38.63 -238.6)"/><polygon points="306.12 168.37 312.48 168.37 332.48 122.39 353.32 168.28 358.64 168.28 335.65 114.63 329.95 114.63 306.12 168.37"/><path class="cls-2" d="M291,401.21v5.42h24.11v-5.42S291,401.11,291,401.21Z" transform="translate(-38.63 -238.6)"/><path class="cls-2" d="M179,352.89v53.83h23.93c13.13-4.47,22.07-12.3,22.43-27-.4-13.16-7.74-22.11-22.24-26.73H187.77v5.52h11c11.82,1.2,20,7.18,21.87,21.31-1.72,12.51-8.57,18.89-18.88,21.12h-17.2V353Z" transform="translate(-38.63 -238.6)"/><path class="cls-2" d="M234.87,353v53.65h36.26v-5.52H240.48V358.4H270.1v-5.51S234.64,352.75,234.87,353Z" transform="translate(-38.63 -238.6)"/><path class="cls-2" d="M243.75,376v6.45H267v-6.54S243.66,375.88,243.75,376Z" transform="translate(-38.63 -238.6)"/><path class="cls-2" d="M282.16,353v53.74h5.61V352.89S282.3,352.84,282.16,353Z" transform="translate(-38.63 -238.6)"/><path class="cls-2" d="M310.85,353h39.44v5.52H310.85S310.71,353.12,310.85,353Z" transform="translate(-38.63 -238.6)"/><path class="cls-2" d="M327.21,361.58v45.14H335V361.58S327.3,361.49,327.21,361.58Z" transform="translate(-38.63 -238.6)"/><polygon class="cls-2" points="306.33 168.12 312.69 168.12 332.69 122.14 353.53 168.03 358.86 168.03 335.87 114.39 330.16 114.39 306.33 168.12"/><path class="cls-3" d="M291.25,401v5.42h24.11V401S291.25,400.87,291.25,401Z" transform="translate(-38.63 -238.6)"/><path class="cls-3" d="M179.2,352.65v53.83h23.92c13.13-4.48,22.07-12.3,22.43-27-.4-13.16-7.74-22.11-22.24-26.73H188v5.51h11c11.82,1.2,20,7.18,21.87,21.31-1.72,12.52-8.57,18.89-18.88,21.12H184.8V352.74Z" transform="translate(-38.63 -238.6)"/><path class="cls-3" d="M235.08,352.74v53.64h36.26v-5.51H240.69V358.16h29.63v-5.51S234.85,352.51,235.08,352.74Z" transform="translate(-38.63 -238.6)"/><path class="cls-3" d="M244,375.73v6.45h23.27v-6.54S243.87,375.64,244,375.73Z" transform="translate(-38.63 -238.6)"/><path class="cls-3" d="M282.37,352.74v53.74H288V352.65S282.51,352.6,282.37,352.74Z" transform="translate(-38.63 -238.6)"/><path class="cls-3" d="M311.06,352.74H350.5v5.51H311.06S310.92,352.88,311.06,352.74Z" transform="translate(-38.63 -238.6)"/><path class="cls-3" d="M327.42,361.34v45.14h7.75V361.34S327.51,361.24,327.42,361.34Z" transform="translate(-38.63 -238.6)"/><polygon class="cls-3" points="306.54 167.88 312.9 167.88 332.9 121.9 353.74 167.79 359.07 167.79 336.08 114.14 330.38 114.14 306.54 167.88"/><path class="cls-4" d="M291.46,400.72v5.42h24.11v-5.42S291.46,400.62,291.46,400.72Z" transform="translate(-38.63 -238.6)"/><path class="cls-4" d="M179.41,352.4v53.83h23.92c13.13-4.47,22.07-12.3,22.43-27-.39-13.16-7.74-22.11-22.24-26.73H188.19V358h11c11.82,1.2,20,7.18,21.87,21.31-1.72,12.51-8.56,18.89-18.88,21.12H185V352.49Z" transform="translate(-38.63 -238.6)"/><path class="cls-4" d="M235.29,352.49v53.65h36.27v-5.52H240.9V357.91h29.63V352.4S235.06,352.26,235.29,352.49Z" transform="translate(-38.63 -238.6)"/><path class="cls-4" d="M244.17,375.48v6.45h23.27v-6.54S244.08,375.39,244.17,375.48Z" transform="translate(-38.63 -238.6)"/><path class="cls-4" d="M282.58,352.49v53.74h5.61V352.4S282.72,352.35,282.58,352.49Z" transform="translate(-38.63 -238.6)"/><path class="cls-4" d="M311.27,352.49h39.44V358H311.27S311.13,352.63,311.27,352.49Z" transform="translate(-38.63 -238.6)"/><path class="cls-4" d="M327.63,361.09v45.14h7.76V361.09S327.72,361,327.63,361.09Z" transform="translate(-38.63 -238.6)"/><polygon class="cls-4" points="306.76 167.63 313.11 167.63 333.11 121.65 353.95 167.54 359.28 167.54 336.29 113.9 330.59 113.9 306.76 167.63"/><path class="cls-5" d="M291.67,400.47v5.42h24.12v-5.42S291.67,400.38,291.67,400.47Z" transform="translate(-38.63 -238.6)"/><path class="cls-5" d="M179.62,352.16V406h23.92c13.14-4.47,22.08-12.3,22.43-27-.39-13.16-7.74-22.11-22.24-26.73H188.4v5.51h11c11.83,1.2,20,7.18,21.87,21.31-1.72,12.52-8.56,18.89-18.88,21.12H185.23V352.25Z" transform="translate(-38.63 -238.6)"/><path class="cls-5" d="M235.51,352.25v53.64h36.26v-5.51H241.11V357.67h29.63v-5.51S235.27,352,235.51,352.25Z" transform="translate(-38.63 -238.6)"/><path class="cls-5" d="M244.38,375.24v6.45h23.28v-6.54S244.29,375.15,244.38,375.24Z" transform="translate(-38.63 -238.6)"/><path class="cls-5" d="M282.8,352.25V406h5.6V352.16S282.94,352.11,282.8,352.25Z" transform="translate(-38.63 -238.6)"/><path class="cls-5" d="M311.49,352.25h39.43v5.51H311.49S311.35,352.39,311.49,352.25Z" transform="translate(-38.63 -238.6)"/><path class="cls-5" d="M327.84,360.85V406h7.76V360.85S327.93,360.75,327.84,360.85Z" transform="translate(-38.63 -238.6)"/><polygon class="cls-5" points="306.97 167.39 313.32 167.39 333.32 121.41 354.16 167.3 359.49 167.3 336.5 113.65 330.8 113.65 306.97 167.39"/><path class="cls-6" d="M291.89,400.23v5.42H316v-5.42S291.89,400.13,291.89,400.23Z" transform="translate(-38.63 -238.6)"/><path class="cls-6" d="M179.83,351.91v53.83h23.93c13.13-4.47,22.07-12.3,22.43-27-.4-13.16-7.74-22.11-22.25-26.73H188.62v5.52h11c11.83,1.2,20,7.18,21.87,21.31C219.8,391.34,213,397.72,202.64,400h-17.2V352Z" transform="translate(-38.63 -238.6)"/><path class="cls-6" d="M235.72,352v53.65H272v-5.52H241.33v-42.7H271v-5.52S235.48,351.77,235.72,352Z" transform="translate(-38.63 -238.6)"/><path class="cls-6" d="M244.6,375v6.45h23.27V374.9S244.5,374.9,244.6,375Z" transform="translate(-38.63 -238.6)"/><path class="cls-6" d="M283,352v53.74h5.6V351.91S283.15,351.86,283,352Z" transform="translate(-38.63 -238.6)"/><path class="cls-6" d="M311.7,352h39.44v5.52H311.7S311.56,352.14,311.7,352Z" transform="translate(-38.63 -238.6)"/><path class="cls-6" d="M328.05,360.6v45.14h7.76V360.6S328.15,360.51,328.05,360.6Z" transform="translate(-38.63 -238.6)"/><polygon class="cls-6" points="307.18 167.14 313.53 167.14 333.53 121.16 354.38 167.05 359.7 167.05 336.71 113.41 331.01 113.41 307.18 167.14"/><path class="cls-7" d="M292.1,400v5.42h24.11V400S292.1,399.89,292.1,400Z" transform="translate(-38.63 -238.6)"/><path class="cls-7" d="M180,351.67V405.5H204c13.13-4.47,22.07-12.3,22.43-27-.4-13.16-7.74-22.11-22.24-26.73H188.83v5.51h11c11.82,1.2,20,7.18,21.86,21.31-1.71,12.52-8.56,18.89-18.87,21.12h-17.2V351.76Z" transform="translate(-38.63 -238.6)"/><path class="cls-7" d="M235.93,351.76V405.4h36.26v-5.51H241.54V357.18h29.62v-5.51S235.7,351.53,235.93,351.76Z" transform="translate(-38.63 -238.6)"/><path class="cls-7" d="M244.81,374.75v6.45h23.27v-6.54S244.71,374.66,244.81,374.75Z" transform="translate(-38.63 -238.6)"/><path class="cls-7" d="M283.22,351.76V405.5h5.61V351.67S283.36,351.62,283.22,351.76Z" transform="translate(-38.63 -238.6)"/><path class="cls-7" d="M311.91,351.76h39.44v5.51H311.91S311.77,351.9,311.91,351.76Z" transform="translate(-38.63 -238.6)"/><path class="cls-7" d="M328.26,360.36V405.5H336V360.36S328.36,360.26,328.26,360.36Z" transform="translate(-38.63 -238.6)"/><polygon class="cls-7" points="307.39 166.9 313.75 166.9 333.75 120.92 354.59 166.81 359.91 166.81 336.92 113.16 331.22 113.16 307.39 166.9"/><path class="cls-8" d="M292.31,399.74v5.42h24.11v-5.42S292.31,399.64,292.31,399.74Z" transform="translate(-38.63 -238.6)"/><path class="cls-8" d="M180.26,351.42v53.83h23.92c13.13-4.47,22.07-12.3,22.43-27-.4-13.16-7.74-22.11-22.24-26.73H189V357h11c11.82,1.2,20,7.18,21.87,21.31-1.72,12.51-8.57,18.89-18.88,21.12h-17.2V351.51Z" transform="translate(-38.63 -238.6)"/><path class="cls-8" d="M236.14,351.51v53.65H272.4v-5.52H241.75v-42.7h29.62v-5.52S235.91,351.28,236.14,351.51Z" transform="translate(-38.63 -238.6)"/><path class="cls-8" d="M245,374.5V381h23.27v-6.54S244.93,374.41,245,374.5Z" transform="translate(-38.63 -238.6)"/><path class="cls-8" d="M283.43,351.51v53.74H289V351.42S283.57,351.37,283.43,351.51Z" transform="translate(-38.63 -238.6)"/><path class="cls-8" d="M312.12,351.51h39.44V357H312.12S312,351.65,312.12,351.51Z" transform="translate(-38.63 -238.6)"/><path class="cls-8" d="M328.48,360.11v45.14h7.75V360.11S328.57,360,328.48,360.11Z" transform="translate(-38.63 -238.6)"/><polygon class="cls-8" points="307.6 166.65 313.96 166.65 333.96 120.67 354.8 166.56 360.13 166.56 337.13 112.92 331.43 112.92 307.6 166.65"/><path class="cls-9" d="M292.52,399.49v5.42h24.11v-5.42S292.52,399.4,292.52,399.49Z" transform="translate(-38.63 -238.6)"/><path class="cls-9" d="M180.47,351.18V405h23.92c13.13-4.47,22.07-12.3,22.43-27-.4-13.16-7.74-22.11-22.24-26.73H189.25v5.51h11c11.82,1.2,20,7.18,21.87,21.31-1.72,12.52-8.57,18.89-18.88,21.12h-17.2V351.27Z" transform="translate(-38.63 -238.6)"/><path class="cls-9" d="M236.35,351.27v53.64h36.26V399.4H242V356.69h29.63v-5.51S236.12,351,236.35,351.27Z" transform="translate(-38.63 -238.6)"/><path class="cls-9" d="M245.23,374.26v6.45H268.5v-6.54S245.14,374.17,245.23,374.26Z" transform="translate(-38.63 -238.6)"/><path class="cls-9" d="M283.64,351.27V405h5.61V351.18S283.78,351.13,283.64,351.27Z" transform="translate(-38.63 -238.6)"/><path class="cls-9" d="M312.33,351.27h39.44v5.51H312.33S312.19,351.41,312.33,351.27Z" transform="translate(-38.63 -238.6)"/><path class="cls-9" d="M328.69,359.87V405h7.75V359.87S328.78,359.77,328.69,359.87Z" transform="translate(-38.63 -238.6)"/><polygon class="cls-9" points="307.81 166.41 314.17 166.41 334.17 120.43 355.01 166.32 360.34 166.32 337.35 112.67 331.65 112.67 307.81 166.41"/><path class="cls-10" d="M292.73,399.25v5.42h24.11v-5.42S292.73,399.15,292.73,399.25Z" transform="translate(-38.63 -238.6)"/><path class="cls-10" d="M180.68,350.93v53.83H204.6c13.13-4.47,22.07-12.3,22.43-27-.39-13.16-7.74-22.11-22.24-26.73H189.46v5.52h11c11.83,1.2,20,7.18,21.87,21.31-1.72,12.51-8.56,18.89-18.88,21.12H186.29V351Z" transform="translate(-38.63 -238.6)"/><path class="cls-10" d="M236.57,351v53.65h36.26v-5.52H242.17v-42.7H271.8v-5.52S236.33,350.79,236.57,351Z" transform="translate(-38.63 -238.6)"/><path class="cls-10" d="M245.44,374v6.45h23.27v-6.54S245.35,373.92,245.44,374Z" transform="translate(-38.63 -238.6)"/><path class="cls-10" d="M283.85,351v53.74h5.61V350.93S284,350.88,283.85,351Z" transform="translate(-38.63 -238.6)"/><path class="cls-10" d="M312.54,351H352v5.52H312.54S312.4,351.17,312.54,351Z" transform="translate(-38.63 -238.6)"/><path class="cls-10" d="M328.9,359.62v45.14h7.76V359.62S329,359.53,328.9,359.62Z" transform="translate(-38.63 -238.6)"/><polygon class="cls-10" points="308.03 166.16 314.38 166.16 334.38 120.18 355.22 166.07 360.55 166.07 337.56 112.43 331.86 112.43 308.03 166.16"/><path class="cls-11" d="M292.94,399v5.42h24.12V399S292.94,398.91,292.94,399Z" transform="translate(-38.63 -238.6)"/><path class="cls-11" d="M180.89,350.69v53.83h23.93c13.13-4.47,22.07-12.3,22.42-27-.39-13.16-7.74-22.11-22.24-26.73H189.68v5.51h11c11.83,1.2,20,7.18,21.87,21.31-1.72,12.52-8.56,18.9-18.88,21.12H186.5V350.78Z" transform="translate(-38.63 -238.6)"/><path class="cls-11" d="M236.78,350.78v53.64H273v-5.51H242.38V356.2H272v-5.51S236.54,350.55,236.78,350.78Z" transform="translate(-38.63 -238.6)"/><path class="cls-11" d="M245.66,373.77v6.45h23.27v-6.54S245.56,373.68,245.66,373.77Z" transform="translate(-38.63 -238.6)"/><path class="cls-11" d="M284.07,350.78v53.74h5.6V350.69S284.21,350.64,284.07,350.78Z" transform="translate(-38.63 -238.6)"/><path class="cls-11" d="M312.76,350.78h39.43v5.51H312.76S312.62,350.92,312.76,350.78Z" transform="translate(-38.63 -238.6)"/><path class="cls-11" d="M329.11,359.38v45.14h7.76V359.38S329.2,359.28,329.11,359.38Z" transform="translate(-38.63 -238.6)"/><polygon class="cls-11" points="308.24 165.92 314.59 165.92 334.59 119.94 355.43 165.83 360.76 165.83 337.77 112.18 332.07 112.18 308.24 165.92"/><path class="cls-12" d="M293.16,398.76v5.42h24.11v-5.42S293.16,398.66,293.16,398.76Z" transform="translate(-38.63 -238.6)"/><path class="cls-12" d="M181.1,350.44v53.83H205c13.13-4.47,22.07-12.3,22.43-27-.4-13.16-7.74-22.11-22.25-26.73H189.89v5.52h11c11.83,1.2,20,7.18,21.87,21.31-1.71,12.51-8.56,18.89-18.87,21.12h-17.2v-48Z" transform="translate(-38.63 -238.6)"/><path class="cls-12" d="M237,350.53v53.65h36.26v-5.52H242.6V356h29.62v-5.52S236.76,350.3,237,350.53Z" transform="translate(-38.63 -238.6)"/><path class="cls-12" d="M245.87,373.53V380h23.27v-6.54S245.77,373.43,245.87,373.53Z" transform="translate(-38.63 -238.6)"/><path class="cls-12" d="M284.28,350.53v53.74h5.6V350.44S284.42,350.39,284.28,350.53Z" transform="translate(-38.63 -238.6)"/><path class="cls-12" d="M313,350.53h39.44v5.52H313S312.83,350.68,313,350.53Z" transform="translate(-38.63 -238.6)"/><path class="cls-12" d="M329.32,359.13v45.14h7.76V359.13S329.42,359,329.32,359.13Z" transform="translate(-38.63 -238.6)"/><polygon class="cls-12" points="308.45 165.68 314.81 165.68 334.8 119.69 355.64 165.58 360.97 165.58 337.98 111.94 332.28 111.94 308.45 165.68"/><path class="cls-13" d="M293.37,398.51v5.42h24.11v-5.42S293.37,398.42,293.37,398.51Z" transform="translate(-38.63 -238.6)"/><path class="cls-13" d="M181.31,350.2V404h23.93c13.13-4.47,22.07-12.3,22.43-27-.4-13.16-7.74-22.11-22.24-26.73H190.1v5.51h11C213,357,221.1,363,223,377.11c-1.72,12.52-8.57,18.9-18.88,21.12h-17.2V350.29Z" transform="translate(-38.63 -238.6)"/><path class="cls-13" d="M237.2,350.29v53.64h36.26v-5.51H242.81V355.71h29.62V350.2S237,350.06,237.2,350.29Z" transform="translate(-38.63 -238.6)"/><path class="cls-13" d="M246.08,373.28v6.45h23.27v-6.54S246,373.19,246.08,373.28Z" transform="translate(-38.63 -238.6)"/><path class="cls-13" d="M284.49,350.29V404h5.61V350.2S284.63,350.15,284.49,350.29Z" transform="translate(-38.63 -238.6)"/><path class="cls-13" d="M313.18,350.29h39.44v5.51H313.18S313,350.43,313.18,350.29Z" transform="translate(-38.63 -238.6)"/><path class="cls-13" d="M329.53,358.89V404h7.76V358.89S329.63,358.79,329.53,358.89Z" transform="translate(-38.63 -238.6)"/><polygon class="cls-13" points="308.66 165.43 315.02 165.43 335.02 119.45 355.86 165.34 361.18 165.34 338.19 111.69 332.49 111.69 308.66 165.43"/><path class="cls-14" d="M293.58,398.27v5.42h24.11v-5.42S293.58,398.17,293.58,398.27Z" transform="translate(-38.63 -238.6)"/><path class="cls-14" d="M181.53,350v53.83h23.92c13.13-4.47,22.07-12.3,22.43-27-.4-13.16-7.74-22.11-22.24-26.72H190.31v5.51h11c11.82,1.2,20,7.18,21.87,21.31-1.72,12.51-8.57,18.89-18.88,21.12h-17.2V350.05Z" transform="translate(-38.63 -238.6)"/><path class="cls-14" d="M237.41,350.05v53.64h36.26v-5.52H243v-42.7h29.63V350S237.18,349.81,237.41,350.05Z" transform="translate(-38.63 -238.6)"/><path class="cls-14" d="M246.29,373v6.44h23.27v-6.54S246.2,372.94,246.29,373Z" transform="translate(-38.63 -238.6)"/><path class="cls-14" d="M284.7,350.05v53.73h5.61V350S284.84,349.9,284.7,350.05Z" transform="translate(-38.63 -238.6)"/><path class="cls-14" d="M313.39,350.05h39.44v5.51H313.39S313.25,350.19,313.39,350.05Z" transform="translate(-38.63 -238.6)"/><path class="cls-14" d="M329.75,358.64v45.14h7.75V358.64S329.84,358.55,329.75,358.64Z" transform="translate(-38.63 -238.6)"/><polygon class="cls-14" points="308.87 165.19 315.23 165.19 335.23 119.2 356.07 165.09 361.39 165.09 338.4 111.45 332.7 111.45 308.87 165.19"/><path class="cls-15" d="M293.79,398v5.42H317.9V398S293.79,397.93,293.79,398Z" transform="translate(-38.63 -238.6)"/><path class="cls-15" d="M181.74,349.71v53.83h23.92c13.13-4.47,22.07-12.3,22.43-27-.4-13.16-7.74-22.11-22.24-26.73H190.52v5.51h11c11.82,1.2,20,7.18,21.87,21.31-1.72,12.52-8.57,18.9-18.88,21.12h-17.2V349.8Z" transform="translate(-38.63 -238.6)"/><path class="cls-15" d="M237.62,349.8v53.64h36.26v-5.51H243.23V355.22h29.63v-5.51S237.39,349.57,237.62,349.8Z" transform="translate(-38.63 -238.6)"/><path class="cls-15" d="M246.5,372.79v6.45h23.27V372.7S246.41,372.7,246.5,372.79Z" transform="translate(-38.63 -238.6)"/><path class="cls-15" d="M284.91,349.8v53.74h5.61V349.71S285.05,349.66,284.91,349.8Z" transform="translate(-38.63 -238.6)"/><path class="cls-15" d="M313.6,349.8H353v5.51H313.6S313.46,349.94,313.6,349.8Z" transform="translate(-38.63 -238.6)"/><path class="cls-15" d="M330,358.4v45.14h7.76V358.4S330.05,358.3,330,358.4Z" transform="translate(-38.63 -238.6)"/><polygon class="cls-15" points="309.08 164.94 315.44 164.94 335.44 118.96 356.28 164.85 361.61 164.85 338.62 111.2 332.92 111.2 309.08 164.94"/><path class="cls-16" d="M294,397.78v5.42h24.11v-5.42S294,397.68,294,397.78Z" transform="translate(-38.63 -238.6)"/><path class="cls-16" d="M182,349.46v53.83h23.92c13.13-4.47,22.08-12.3,22.43-27-.39-13.16-7.74-22.11-22.24-26.72H190.73v5.51h11c11.83,1.2,20,7.18,21.87,21.31-1.72,12.51-8.56,18.89-18.88,21.12H187.56V349.56Z" transform="translate(-38.63 -238.6)"/><path class="cls-16" d="M237.84,349.56V403.2H274.1v-5.52H243.44V355h29.63v-5.52S237.6,349.32,237.84,349.56Z" transform="translate(-38.63 -238.6)"/><path class="cls-16" d="M246.71,372.55V379H270v-6.54S246.62,372.45,246.71,372.55Z" transform="translate(-38.63 -238.6)"/><path class="cls-16" d="M285.12,349.56v53.73h5.61V349.46S285.26,349.42,285.12,349.56Z" transform="translate(-38.63 -238.6)"/><path class="cls-16" d="M313.82,349.56h39.43v5.51H313.82S313.68,349.7,313.82,349.56Z" transform="translate(-38.63 -238.6)"/><path class="cls-16" d="M330.17,358.15v45.14h7.76V358.15S330.26,358.06,330.17,358.15Z" transform="translate(-38.63 -238.6)"/><polygon class="cls-16" points="309.3 164.69 315.65 164.69 335.65 118.72 356.49 164.6 361.82 164.6 338.83 110.96 333.13 110.96 309.3 164.69"/><path class="cls-17" d="M294.21,397.53V403h24.12v-5.42S294.21,397.44,294.21,397.53Z" transform="translate(-38.63 -238.6)"/><path class="cls-17" d="M182.16,349.22v53.83h23.93c13.13-4.47,22.07-12.3,22.42-27-.39-13.16-7.73-22.11-22.24-26.73H191v5.51h11c11.83,1.2,20,7.18,21.87,21.31-1.72,12.52-8.56,18.9-18.88,21.12H187.77V349.31Z" transform="translate(-38.63 -238.6)"/><path class="cls-17" d="M238.05,349.31V403h36.26v-5.51H243.65V354.73h29.63v-5.51S237.81,349.08,238.05,349.31Z" transform="translate(-38.63 -238.6)"/><path class="cls-17" d="M246.93,372.3v6.45H270.2v-6.54S246.83,372.21,246.93,372.3Z" transform="translate(-38.63 -238.6)"/><path class="cls-17" d="M285.34,349.31v53.74h5.6V349.22S285.48,349.17,285.34,349.31Z" transform="translate(-38.63 -238.6)"/><path class="cls-17" d="M314,349.31h39.44v5.51H314S313.89,349.45,314,349.31Z" transform="translate(-38.63 -238.6)"/><path class="cls-17" d="M330.38,357.91v45.14h7.76V357.91S330.48,357.81,330.38,357.91Z" transform="translate(-38.63 -238.6)"/><polygon class="cls-17" points="309.51 164.45 315.86 164.45 335.86 118.47 356.7 164.36 362.03 164.36 339.04 110.71 333.34 110.71 309.51 164.45"/><path class="cls-18" d="M294.43,397.29v5.42h24.11v-5.42S294.43,397.2,294.43,397.29Z" transform="translate(-38.63 -238.6)"/><path class="cls-18" d="M182.37,349V402.8H206.3c13.13-4.47,22.07-12.3,22.43-27-.4-13.16-7.74-22.11-22.25-26.72H191.16v5.51h11c11.82,1.2,20,7.18,21.86,21.31-1.71,12.51-8.56,18.89-18.87,21.12H188V349.07Z" transform="translate(-38.63 -238.6)"/><path class="cls-18" d="M238.26,349.07v53.64h36.26V397.2H243.87V354.49h29.62V349S238,348.83,238.26,349.07Z" transform="translate(-38.63 -238.6)"/><path class="cls-18" d="M247.14,372.06v6.44h23.27V372S247,372,247.14,372.06Z" transform="translate(-38.63 -238.6)"/><path class="cls-18" d="M285.55,349.07V402.8h5.61V349S285.69,348.93,285.55,349.07Z" transform="translate(-38.63 -238.6)"/><path class="cls-18" d="M314.24,349.07h39.44v5.51H314.24S314.1,349.21,314.24,349.07Z" transform="translate(-38.63 -238.6)"/><path class="cls-18" d="M330.59,357.66V402.8h7.76V357.66S330.69,357.57,330.59,357.66Z" transform="translate(-38.63 -238.6)"/><polygon class="cls-18" points="309.72 164.21 316.07 164.21 336.07 118.22 356.92 164.11 362.24 164.11 339.25 110.47 333.55 110.47 309.72 164.21"/><path class="cls-19" d="M294.64,397v5.42h24.11V397S294.64,397,294.64,397Z" transform="translate(-38.63 -238.6)"/><path class="cls-19" d="M182.58,348.73v53.83h23.93c13.13-4.47,22.07-12.3,22.43-27-.4-13.16-7.74-22.11-22.24-26.73H191.37v5.51h11c11.82,1.2,20,7.18,21.87,21.31-1.72,12.52-8.57,18.9-18.88,21.12h-17.2V348.82Z" transform="translate(-38.63 -238.6)"/><path class="cls-19" d="M238.47,348.82v53.64h36.26V397H244.08V354.24H273.7v-5.51S238.24,348.59,238.47,348.82Z" transform="translate(-38.63 -238.6)"/><path class="cls-19" d="M247.35,371.81v6.45h23.27v-6.54S247.26,371.72,247.35,371.81Z" transform="translate(-38.63 -238.6)"/><path class="cls-19" d="M285.76,348.82v53.74h5.61V348.73S285.9,348.68,285.76,348.82Z" transform="translate(-38.63 -238.6)"/><path class="cls-19" d="M314.45,348.82h39.44v5.51H314.45S314.31,349,314.45,348.82Z" transform="translate(-38.63 -238.6)"/><path class="cls-19" d="M330.81,357.42v45.14h7.75V357.42S330.9,357.32,330.81,357.42Z" transform="translate(-38.63 -238.6)"/><polygon class="cls-19" points="309.93 163.96 316.29 163.96 336.29 117.98 357.13 163.87 362.45 163.87 339.46 110.22 333.76 110.22 309.93 163.96"/><path class="cls-20" d="M294.85,396.8v5.42H319V396.8S294.85,396.71,294.85,396.8Z" transform="translate(-38.63 -238.6)"/><path class="cls-20" d="M182.8,348.48v53.83h23.92c13.13-4.47,22.07-12.3,22.43-27-.4-13.16-7.74-22.11-22.24-26.72H191.58v5.51h11c11.82,1.2,20,7.18,21.87,21.31-1.72,12.51-8.57,18.89-18.88,21.12H188.4V348.58Z" transform="translate(-38.63 -238.6)"/><path class="cls-20" d="M238.68,348.58v53.64h36.26v-5.51H244.29V354h29.63v-5.52S238.45,348.34,238.68,348.58Z" transform="translate(-38.63 -238.6)"/><path class="cls-20" d="M247.56,371.57V378h23.27v-6.54S247.47,371.47,247.56,371.57Z" transform="translate(-38.63 -238.6)"/><path class="cls-20" d="M286,348.58v53.73h5.61V348.48S286.11,348.44,286,348.58Z" transform="translate(-38.63 -238.6)"/><path class="cls-20" d="M314.66,348.58H354.1v5.51H314.66S314.52,348.72,314.66,348.58Z" transform="translate(-38.63 -238.6)"/><path class="cls-20" d="M331,357.17v45.14h7.75V357.17S331.11,357.08,331,357.17Z" transform="translate(-38.63 -238.6)"/><polygon class="cls-20" points="310.14 163.72 316.5 163.72 336.5 117.73 357.34 163.62 362.67 163.62 339.68 109.98 333.98 109.98 310.14 163.72"/><path class="cls-21" d="M295.06,396.55V402h24.11v-5.42S295.06,396.46,295.06,396.55Z" transform="translate(-38.63 -238.6)"/><path class="cls-21" d="M183,348.24v53.83h23.92c13.13-4.47,22.07-12.3,22.43-27-.4-13.16-7.74-22.11-22.24-26.73H191.79v5.51h11c11.82,1.2,20,7.18,21.87,21.31-1.72,12.52-8.57,18.9-18.88,21.12H188.62V348.33Z" transform="translate(-38.63 -238.6)"/><path class="cls-21" d="M238.89,348.33V402h36.27v-5.51H244.5V353.75h29.63v-5.51S238.66,348.1,238.89,348.33Z" transform="translate(-38.63 -238.6)"/><path class="cls-21" d="M247.77,371.32v6.45H271v-6.54S247.68,371.23,247.77,371.32Z" transform="translate(-38.63 -238.6)"/><path class="cls-21" d="M286.18,348.33v53.74h5.61V348.24S286.32,348.19,286.18,348.33Z" transform="translate(-38.63 -238.6)"/><path class="cls-21" d="M314.87,348.33h39.44v5.51H314.87S314.73,348.47,314.87,348.33Z" transform="translate(-38.63 -238.6)"/><path class="cls-21" d="M331.23,356.93v45.14H339V356.93S331.32,356.83,331.23,356.93Z" transform="translate(-38.63 -238.6)"/><polygon class="cls-21" points="310.36 163.47 316.71 163.47 336.71 117.49 357.55 163.38 362.88 163.38 339.89 109.73 334.19 109.73 310.36 163.47"/><path class="cls-22" d="M295.27,396.31v5.42h24.11v-5.42S295.27,396.22,295.27,396.31Z" transform="translate(-38.63 -238.6)"/><path class="cls-22" d="M183.22,348v53.83h23.92c13.13-4.47,22.08-12.3,22.43-27-.39-13.16-7.74-22.11-22.24-26.72H192v5.51h11c11.83,1.2,20,7.18,21.87,21.31C223.18,387.42,216.34,393.8,206,396H188.83V348.09Z" transform="translate(-38.63 -238.6)"/><path class="cls-22" d="M239.11,348.09v53.64h36.26v-5.51H244.71V353.51h29.63V348S238.87,347.85,239.11,348.09Z" transform="translate(-38.63 -238.6)"/><path class="cls-22" d="M248,371.08v6.44h23.27V371S247.89,371,248,371.08Z" transform="translate(-38.63 -238.6)"/><path class="cls-22" d="M286.39,348.09v53.73H292V348S286.53,348,286.39,348.09Z" transform="translate(-38.63 -238.6)"/><path class="cls-22" d="M315.09,348.09h39.43v5.51H315.09S315,348.23,315.09,348.09Z" transform="translate(-38.63 -238.6)"/><path class="cls-22" d="M331.44,356.68v45.14h7.76V356.68S331.53,356.59,331.44,356.68Z" transform="translate(-38.63 -238.6)"/><polygon class="cls-22" points="310.57 163.22 316.92 163.22 336.92 117.25 357.76 163.13 363.09 163.13 340.1 109.49 334.4 109.49 310.57 163.22"/><path class="cls-23" d="M295.48,396.06v5.42H319.6v-5.42S295.48,396,295.48,396.06Z" transform="translate(-38.63 -238.6)"/><path class="cls-23" d="M183.43,347.75v53.83h23.93c13.13-4.47,22.07-12.3,22.43-27-.4-13.16-7.74-22.11-22.25-26.73H192.22v5.51h11c11.83,1.2,20,7.18,21.87,21.31-1.72,12.52-8.56,18.9-18.88,21.12H189V347.84Z" transform="translate(-38.63 -238.6)"/><path class="cls-23" d="M239.32,347.84v53.64h36.26V396H244.93V353.26h29.62v-5.51S239.08,347.61,239.32,347.84Z" transform="translate(-38.63 -238.6)"/><path class="cls-23" d="M248.2,370.83v6.45h23.27v-6.54S248.1,370.74,248.2,370.83Z" transform="translate(-38.63 -238.6)"/><path class="cls-23" d="M286.61,347.84v53.74h5.6V347.75S286.75,347.7,286.61,347.84Z" transform="translate(-38.63 -238.6)"/><path class="cls-23" d="M315.3,347.84h39.44v5.51H315.3S315.16,348,315.3,347.84Z" transform="translate(-38.63 -238.6)"/><path class="cls-23" d="M331.65,356.44v45.14h7.76V356.44S331.75,356.35,331.65,356.44Z" transform="translate(-38.63 -238.6)"/><polygon class="cls-23" points="310.78 162.98 317.13 162.98 337.13 117 357.97 162.89 363.3 162.89 340.31 109.24 334.61 109.24 310.78 162.98"/><path class="cls-24" d="M295.7,395.82v5.42h24.11v-5.42S295.7,395.73,295.7,395.82Z" transform="translate(-38.63 -238.6)"/><path class="cls-24" d="M183.64,347.5v53.83h23.93c13.13-4.47,22.07-12.3,22.43-27-.4-13.16-7.74-22.11-22.25-26.72H192.43v5.51h11c11.82,1.2,20,7.18,21.86,21.31-1.71,12.51-8.56,18.89-18.87,21.12h-17.2V347.6Z" transform="translate(-38.63 -238.6)"/><path class="cls-24" d="M239.53,347.6v53.64h36.26v-5.51H245.14V353h29.62V347.5S239.3,347.36,239.53,347.6Z" transform="translate(-38.63 -238.6)"/><path class="cls-24" d="M248.41,370.59V377h23.27v-6.54S248.31,370.49,248.41,370.59Z" transform="translate(-38.63 -238.6)"/><path class="cls-24" d="M286.82,347.6v53.73h5.61V347.5S287,347.46,286.82,347.6Z" transform="translate(-38.63 -238.6)"/><path class="cls-24" d="M315.51,347.6H355v5.51H315.51S315.37,347.74,315.51,347.6Z" transform="translate(-38.63 -238.6)"/><path class="cls-24" d="M331.86,356.19v45.14h7.76V356.19S332,356.1,331.86,356.19Z" transform="translate(-38.63 -238.6)"/><polygon class="cls-24" points="310.99 162.74 317.35 162.74 337.35 116.75 358.19 162.64 363.51 162.64 340.52 109 334.82 109 310.99 162.74"/><path class="cls-25" d="M295.91,395.57V401H320v-5.42S295.91,395.48,295.91,395.57Z" transform="translate(-38.63 -238.6)"/><path class="cls-25" d="M183.85,347.26v53.83h23.93c13.13-4.47,22.07-12.3,22.43-27-.4-13.16-7.74-22.11-22.24-26.73H192.64v5.51h11c11.82,1.2,20,7.18,21.87,21.31-1.72,12.52-8.57,18.9-18.88,21.12h-17.2V347.35Z" transform="translate(-38.63 -238.6)"/><path class="cls-25" d="M239.74,347.35V401H276v-5.51H245.35V352.77H275v-5.51S239.51,347.12,239.74,347.35Z" transform="translate(-38.63 -238.6)"/><path class="cls-25" d="M248.62,370.34v6.45h23.27v-6.54S248.53,370.25,248.62,370.34Z" transform="translate(-38.63 -238.6)"/><path class="cls-25" d="M287,347.35v53.74h5.61V347.26S287.17,347.21,287,347.35Z" transform="translate(-38.63 -238.6)"/><path class="cls-25" d="M315.72,347.35h39.44v5.51H315.72S315.58,347.49,315.72,347.35Z" transform="translate(-38.63 -238.6)"/><path class="cls-25" d="M332.08,356v45.14h7.75V356S332.17,355.86,332.08,356Z" transform="translate(-38.63 -238.6)"/><polygon class="cls-25" points="311.2 162.49 317.56 162.49 337.56 116.51 358.4 162.4 363.72 162.4 340.73 108.75 335.03 108.75 311.2 162.49"/><path class="cls-26" d="M296.12,395.33v5.42h24.11v-5.42S296.12,395.24,296.12,395.33Z" transform="translate(-38.63 -238.6)"/><path class="cls-26" d="M184.07,347v53.83H208c13.13-4.47,22.07-12.3,22.43-27-.4-13.15-7.74-22.11-22.24-26.72H192.85v5.51h11c11.82,1.2,20,7.18,21.87,21.31-1.72,12.51-8.57,18.89-18.88,21.12h-17.2V347.11Z" transform="translate(-38.63 -238.6)"/><path class="cls-26" d="M240,347.11v53.64h36.26v-5.51H245.56V352.53h29.63V347S239.72,346.87,240,347.11Z" transform="translate(-38.63 -238.6)"/><path class="cls-26" d="M248.83,370.1v6.44H272.1V370S248.74,370,248.83,370.1Z" transform="translate(-38.63 -238.6)"/><path class="cls-26" d="M287.24,347.11v53.73h5.61V347S287.38,347,287.24,347.11Z" transform="translate(-38.63 -238.6)"/><path class="cls-26" d="M315.93,347.11h39.44v5.51H315.93S315.79,347.25,315.93,347.11Z" transform="translate(-38.63 -238.6)"/><path class="cls-26" d="M332.29,355.7v45.14H340V355.7S332.38,355.61,332.29,355.7Z" transform="translate(-38.63 -238.6)"/><polygon class="cls-26" points="311.41 162.25 317.77 162.25 337.77 116.27 358.61 162.15 363.94 162.15 340.95 108.51 335.25 108.51 311.41 162.25"/><path class="cls-27" d="M296.33,395.08v5.42h24.11v-5.42S296.33,395,296.33,395.08Z" transform="translate(-38.63 -238.6)"/><path class="cls-27" d="M184.28,346.77V400.6H208.2c13.13-4.47,22.07-12.3,22.43-27-.39-13.16-7.74-22.11-22.24-26.73H193.06v5.51h11c11.82,1.2,20,7.18,21.87,21.31-1.72,12.52-8.56,18.9-18.88,21.12H189.89V346.86Z" transform="translate(-38.63 -238.6)"/><path class="cls-27" d="M240.16,346.86V400.5h36.27V395H245.77V352.28H275.4v-5.51S239.93,346.63,240.16,346.86Z" transform="translate(-38.63 -238.6)"/><path class="cls-27" d="M249,369.85v6.45h23.27v-6.54S249,369.76,249,369.85Z" transform="translate(-38.63 -238.6)"/><path class="cls-27" d="M287.45,346.86V400.6h5.61V346.77S287.59,346.72,287.45,346.86Z" transform="translate(-38.63 -238.6)"/><path class="cls-27" d="M316.14,346.86h39.44v5.51H316.14S316,347,316.14,346.86Z" transform="translate(-38.63 -238.6)"/><path class="cls-27" d="M332.5,355.46V400.6h7.76V355.46S332.59,355.37,332.5,355.46Z" transform="translate(-38.63 -238.6)"/><polygon class="cls-27" points="311.63 162 317.98 162 337.98 116.02 358.82 161.91 364.15 161.91 341.16 108.26 335.46 108.26 311.63 162"/><path class="cls-28" d="M296.54,394.84v5.42h24.11v-5.42S296.54,394.75,296.54,394.84Z" transform="translate(-38.63 -238.6)"/><path class="cls-28" d="M184.49,346.52v53.83h23.92c13.14-4.47,22.08-12.3,22.43-27-.39-13.15-7.74-22.11-22.24-26.72H193.27v5.51h11c11.83,1.2,20,7.18,21.87,21.31-1.72,12.51-8.56,18.89-18.88,21.12H190.1V346.62Z" transform="translate(-38.63 -238.6)"/><path class="cls-28" d="M240.38,346.62v53.64h36.26v-5.51H246V352h29.63v-5.52S240.14,346.38,240.38,346.62Z" transform="translate(-38.63 -238.6)"/><path class="cls-28" d="M249.25,369.61v6.44h23.28v-6.54S249.16,369.51,249.25,369.61Z" transform="translate(-38.63 -238.6)"/><path class="cls-28" d="M287.67,346.62v53.73h5.6V346.52S287.81,346.48,287.67,346.62Z" transform="translate(-38.63 -238.6)"/><path class="cls-28" d="M316.36,346.62h39.43v5.51H316.36S316.22,346.76,316.36,346.62Z" transform="translate(-38.63 -238.6)"/><path class="cls-28" d="M332.71,355.21v45.14h7.76V355.21S332.8,355.12,332.71,355.21Z" transform="translate(-38.63 -238.6)"/><polygon class="cls-28" points="311.84 161.76 318.19 161.76 338.19 115.78 359.03 161.66 364.36 161.66 341.37 108.02 335.67 108.02 311.84 161.76"/><path class="cls-29" d="M296.76,394.59V400h24.11v-5.42S296.76,394.5,296.76,394.59Z" transform="translate(-38.63 -238.6)"/><path class="cls-29" d="M184.7,346.28v53.83h23.93c13.13-4.47,22.07-12.3,22.43-27-.4-13.16-7.74-22.11-22.25-26.73H193.49v5.51h11c11.83,1.2,20,7.18,21.87,21.31-1.71,12.52-8.56,18.9-18.88,21.12H190.31V346.37Z" transform="translate(-38.63 -238.6)"/><path class="cls-29" d="M240.59,346.37V400h36.26V394.5H246.2V351.79h29.62v-5.51S240.35,346.14,240.59,346.37Z" transform="translate(-38.63 -238.6)"/><path class="cls-29" d="M249.47,369.36v6.45h23.27v-6.54S249.37,369.27,249.47,369.36Z" transform="translate(-38.63 -238.6)"/><path class="cls-29" d="M287.88,346.37v53.74h5.6V346.28S288,346.23,287.88,346.37Z" transform="translate(-38.63 -238.6)"/><path class="cls-29" d="M316.57,346.37H356v5.51H316.57S316.43,346.51,316.57,346.37Z" transform="translate(-38.63 -238.6)"/><path class="cls-29" d="M332.92,355v45.14h7.76V355S333,354.88,332.92,355Z" transform="translate(-38.63 -238.6)"/><polygon class="cls-29" points="312.05 161.51 318.4 161.51 338.4 115.53 359.24 161.42 364.57 161.42 341.58 107.77 335.88 107.77 312.05 161.51"/><path class="cls-30" d="M297,394.35v5.42h24.11v-5.42S297,394.26,297,394.35Z" transform="translate(-38.63 -238.6)"/><path class="cls-30" d="M184.91,346v53.83h23.93c13.13-4.47,22.07-12.3,22.43-27-.4-13.15-7.74-22.11-22.25-26.72H193.7v5.51h11c11.82,1.2,20,7.18,21.86,21.31-1.71,12.51-8.56,18.89-18.87,21.12h-17.2V346.13Z" transform="translate(-38.63 -238.6)"/><path class="cls-30" d="M240.8,346.13v53.64h36.26v-5.51H246.41V351.55H276V346S240.57,345.89,240.8,346.13Z" transform="translate(-38.63 -238.6)"/><path class="cls-30" d="M249.68,369.12v6.44H273V369S249.58,369,249.68,369.12Z" transform="translate(-38.63 -238.6)"/><path class="cls-30" d="M288.09,346.13v53.73h5.61V346S288.23,346,288.09,346.13Z" transform="translate(-38.63 -238.6)"/><path class="cls-30" d="M316.78,346.13h39.44v5.51H316.78S316.64,346.27,316.78,346.13Z" transform="translate(-38.63 -238.6)"/><path class="cls-30" d="M333.13,354.72v45.14h7.76V354.72S333.23,354.63,333.13,354.72Z" transform="translate(-38.63 -238.6)"/><polygon class="cls-30" points="312.26 161.27 318.62 161.27 338.62 115.28 359.46 161.17 364.78 161.17 341.79 107.53 336.09 107.53 312.26 161.27"/><path class="cls-31" d="M297.18,394.1v5.42h24.11V394.1S297.18,394,297.18,394.1Z" transform="translate(-38.63 -238.6)"/><path class="cls-31" d="M185.13,345.79v53.83h23.92c13.13-4.47,22.07-12.3,22.43-27-.4-13.16-7.74-22.11-22.24-26.73H193.91v5.52h11c11.82,1.2,20,7.18,21.87,21.31-1.72,12.52-8.57,18.9-18.88,21.12h-17.2V345.88Z" transform="translate(-38.63 -238.6)"/><path class="cls-31" d="M241,345.88v53.64h36.26V394H246.62V351.3h29.62v-5.51S240.78,345.65,241,345.88Z" transform="translate(-38.63 -238.6)"/><path class="cls-31" d="M249.89,368.87v6.45h23.27v-6.54S249.8,368.78,249.89,368.87Z" transform="translate(-38.63 -238.6)"/><path class="cls-31" d="M288.3,345.88v53.74h5.61V345.79S288.44,345.74,288.3,345.88Z" transform="translate(-38.63 -238.6)"/><path class="cls-31" d="M317,345.88h39.44v5.52H317S316.85,346,317,345.88Z" transform="translate(-38.63 -238.6)"/><path class="cls-31" d="M333.35,354.48v45.14h7.75V354.48S333.44,354.39,333.35,354.48Z" transform="translate(-38.63 -238.6)"/><polygon class="cls-31" points="312.47 161.02 318.83 161.02 338.83 115.04 359.67 160.93 365 160.93 342 107.28 336.3 107.28 312.47 161.02"/><path class="cls-32" d="M297.39,393.86v5.42H321.5v-5.42S297.39,393.77,297.39,393.86Z" transform="translate(-38.63 -238.6)"/><path class="cls-32" d="M185.34,345.54v53.83h23.92c13.13-4.47,22.07-12.3,22.43-27-.4-13.15-7.74-22.11-22.24-26.72H194.12v5.51h11c11.82,1.2,20,7.18,21.87,21.31-1.72,12.51-8.57,18.89-18.88,21.12h-17.2V345.64Z" transform="translate(-38.63 -238.6)"/><path class="cls-32" d="M241.22,345.64v53.64h36.26v-5.51H246.83V351.06h29.63v-5.52S241,345.4,241.22,345.64Z" transform="translate(-38.63 -238.6)"/><path class="cls-32" d="M250.1,368.63v6.44h23.27v-6.54S250,368.53,250.1,368.63Z" transform="translate(-38.63 -238.6)"/><path class="cls-32" d="M288.51,345.64v53.73h5.61V345.54S288.65,345.5,288.51,345.64Z" transform="translate(-38.63 -238.6)"/><path class="cls-32" d="M317.2,345.64h39.44v5.51H317.2S317.06,345.78,317.2,345.64Z" transform="translate(-38.63 -238.6)"/><path class="cls-32" d="M333.56,354.23v45.14h7.75V354.23S333.65,354.14,333.56,354.23Z" transform="translate(-38.63 -238.6)"/><polygon class="cls-32" points="312.68 160.78 319.04 160.78 339.04 114.8 359.88 160.68 365.21 160.68 342.22 107.04 336.52 107.04 312.68 160.78"/><path class="cls-33" d="M297.6,393.61V399h24.11v-5.42S297.6,393.52,297.6,393.61Z" transform="translate(-38.63 -238.6)"/><path class="cls-33" d="M185.55,345.3v53.83h23.92c13.13-4.47,22.07-12.3,22.43-27-.39-13.16-7.74-22.11-22.24-26.73H194.33v5.52h11c11.82,1.19,20,7.17,21.87,21.3-1.72,12.52-8.56,18.9-18.88,21.12H191.16V345.39Z" transform="translate(-38.63 -238.6)"/><path class="cls-33" d="M241.44,345.39V399H277.7v-5.51H247V350.81h29.63V345.3S241.2,345.16,241.44,345.39Z" transform="translate(-38.63 -238.6)"/><path class="cls-33" d="M250.31,368.38v6.45h23.27v-6.54S250.22,368.29,250.31,368.38Z" transform="translate(-38.63 -238.6)"/><path class="cls-33" d="M288.72,345.39v53.74h5.61V345.3S288.86,345.25,288.72,345.39Z" transform="translate(-38.63 -238.6)"/><path class="cls-33" d="M317.41,345.39h39.44v5.52H317.41S317.27,345.53,317.41,345.39Z" transform="translate(-38.63 -238.6)"/><path class="cls-33" d="M333.77,354v45.14h7.76V354S333.86,353.9,333.77,354Z" transform="translate(-38.63 -238.6)"/><polygon class="cls-33" points="312.9 160.53 319.25 160.53 339.25 114.55 360.09 160.44 365.42 160.44 342.43 106.79 336.73 106.79 312.9 160.53"/><path class="cls-34" d="M297.81,393.37v5.42h24.12v-5.42S297.81,393.28,297.81,393.37Z" transform="translate(-38.63 -238.6)"/><path class="cls-34" d="M185.76,345.05v53.83h23.92c13.14-4.47,22.08-12.3,22.43-27-.39-13.15-7.74-22.11-22.24-26.72H194.55v5.51h11c11.83,1.2,20,7.18,21.87,21.31-1.72,12.51-8.56,18.89-18.88,21.12H191.37V345.15Z" transform="translate(-38.63 -238.6)"/><path class="cls-34" d="M241.65,345.15v53.64h36.26v-5.51H247.25V350.57h29.63v-5.52S241.41,344.91,241.65,345.15Z" transform="translate(-38.63 -238.6)"/><path class="cls-34" d="M250.53,368.14v6.44H273.8V368S250.43,368,250.53,368.14Z" transform="translate(-38.63 -238.6)"/><path class="cls-34" d="M288.94,345.15v53.73h5.6V345.05S289.08,345,288.94,345.15Z" transform="translate(-38.63 -238.6)"/><path class="cls-34" d="M317.63,345.15h39.43v5.51H317.63S317.49,345.29,317.63,345.15Z" transform="translate(-38.63 -238.6)"/><path class="cls-34" d="M334,353.74v45.14h7.76V353.74S334.07,353.65,334,353.74Z" transform="translate(-38.63 -238.6)"/><polygon class="cls-34" points="313.11 160.29 319.46 160.29 339.46 114.31 360.3 160.19 365.63 160.19 342.64 106.55 336.94 106.55 313.11 160.29"/><path class="cls-35" d="M298,393.12v5.42h24.11v-5.42S298,393,298,393.12Z" transform="translate(-38.63 -238.6)"/><path class="cls-35" d="M186,344.81v53.83H209.9c13.13-4.47,22.07-12.3,22.43-27-.4-13.16-7.74-22.11-22.25-26.73H194.76v5.52h11c11.83,1.19,20,7.17,21.87,21.3-1.71,12.52-8.56,18.9-18.87,21.12h-17.2V344.9Z" transform="translate(-38.63 -238.6)"/><path class="cls-35" d="M241.86,344.9v53.64h36.26V393H247.47V350.32h29.62v-5.51S241.62,344.67,241.86,344.9Z" transform="translate(-38.63 -238.6)"/><path class="cls-35" d="M250.74,367.89v6.45H274V367.8S250.64,367.8,250.74,367.89Z" transform="translate(-38.63 -238.6)"/><path class="cls-35" d="M289.15,344.9v53.74h5.6V344.81S289.29,344.76,289.15,344.9Z" transform="translate(-38.63 -238.6)"/><path class="cls-35" d="M317.84,344.9h39.44v5.52H317.84S317.7,345,317.84,344.9Z" transform="translate(-38.63 -238.6)"/><path class="cls-35" d="M334.19,353.5v45.14H342V353.5S334.29,353.41,334.19,353.5Z" transform="translate(-38.63 -238.6)"/><polygon class="cls-35" points="313.32 160.04 319.68 160.04 339.67 114.06 360.51 159.95 365.84 159.95 342.85 106.3 337.15 106.3 313.32 160.04"/><path class="cls-36" d="M298.24,392.88v5.42h24.11v-5.42S298.24,392.79,298.24,392.88Z" transform="translate(-38.63 -238.6)"/><path class="cls-36" d="M186.18,344.56v53.83h23.93c13.13-4.47,22.07-12.3,22.43-27-.4-13.15-7.74-22.11-22.24-26.72H195v5.51h11c11.82,1.2,20,7.18,21.86,21.31C226.15,384,219.3,390.37,209,392.6h-17.2V344.66Z" transform="translate(-38.63 -238.6)"/><path class="cls-36" d="M242.07,344.66V398.3h36.26v-5.51H247.68V350.08H277.3v-5.52S241.84,344.42,242.07,344.66Z" transform="translate(-38.63 -238.6)"/><path class="cls-36" d="M251,367.65v6.44h23.27v-6.54S250.86,367.55,251,367.65Z" transform="translate(-38.63 -238.6)"/><path class="cls-36" d="M289.36,344.66v53.73H295V344.56S289.5,344.52,289.36,344.66Z" transform="translate(-38.63 -238.6)"/><path class="cls-36" d="M318.05,344.66h39.44v5.51H318.05S317.91,344.8,318.05,344.66Z" transform="translate(-38.63 -238.6)"/><path class="cls-36" d="M334.4,353.25v45.14h7.76V353.25S334.5,353.16,334.4,353.25Z" transform="translate(-38.63 -238.6)"/><polygon class="cls-36" points="313.53 159.8 319.89 159.8 339.89 113.82 360.73 159.7 366.05 159.7 343.06 106.06 337.36 106.06 313.53 159.8"/><path class="cls-37" d="M298.45,392.63v5.43h24.11v-5.43S298.45,392.54,298.45,392.63Z" transform="translate(-38.63 -238.6)"/><path class="cls-37" d="M186.4,344.32v53.83h23.92c13.13-4.47,22.07-12.3,22.43-27C232.35,358,225,349,210.51,344.41H195.18v5.52h11c11.82,1.19,20,7.17,21.87,21.3-1.72,12.52-8.57,18.9-18.88,21.12H192V344.41Z" transform="translate(-38.63 -238.6)"/><path class="cls-37" d="M242.28,344.41v53.65h36.26v-5.52H247.89V349.83h29.62v-5.51S242.05,344.18,242.28,344.41Z" transform="translate(-38.63 -238.6)"/><path class="cls-37" d="M251.16,367.4v6.45h23.27v-6.54S251.07,367.31,251.16,367.4Z" transform="translate(-38.63 -238.6)"/><path class="cls-37" d="M289.57,344.41v53.74h5.61V344.32S289.71,344.27,289.57,344.41Z" transform="translate(-38.63 -238.6)"/><path class="cls-37" d="M318.26,344.41H357.7v5.52H318.26S318.12,344.55,318.26,344.41Z" transform="translate(-38.63 -238.6)"/><path class="cls-37" d="M334.62,353v45.14h7.75V353S334.71,352.92,334.62,353Z" transform="translate(-38.63 -238.6)"/><polygon class="cls-37" points="313.74 159.55 320.1 159.55 340.1 113.57 360.94 159.46 366.26 159.46 343.27 105.81 337.57 105.81 313.74 159.55"/><path class="cls-38" d="M298.66,392.39v5.42h24.11v-5.42S298.66,392.3,298.66,392.39Z" transform="translate(-38.63 -238.6)"/><path class="cls-38" d="M186.61,344.07V397.9h23.92c13.13-4.47,22.07-12.3,22.43-27-.4-13.15-7.74-22.11-22.24-26.72H195.39v5.51h11c11.82,1.2,20,7.18,21.87,21.31-1.72,12.51-8.57,18.89-18.88,21.12h-17.2V344.17Z" transform="translate(-38.63 -238.6)"/><path class="cls-38" d="M242.49,344.17v53.64h36.26V392.3H248.1V349.59h29.63v-5.52S242.26,343.93,242.49,344.17Z" transform="translate(-38.63 -238.6)"/><path class="cls-38" d="M251.37,367.16v6.45h23.27v-6.55S251.28,367.06,251.37,367.16Z" transform="translate(-38.63 -238.6)"/><path class="cls-38" d="M289.78,344.17V397.9h5.61V344.07S289.92,344,289.78,344.17Z" transform="translate(-38.63 -238.6)"/><path class="cls-38" d="M318.47,344.17h39.44v5.51H318.47S318.33,344.31,318.47,344.17Z" transform="translate(-38.63 -238.6)"/><path class="cls-38" d="M334.83,352.76V397.9h7.75V352.76S334.92,352.67,334.83,352.76Z" transform="translate(-38.63 -238.6)"/><polygon class="cls-38" points="313.95 159.31 320.31 159.31 340.31 113.33 361.15 159.21 366.48 159.21 343.49 105.57 337.79 105.57 313.95 159.31"/><path class="cls-39" d="M298.87,392.14v5.43H323v-5.43S298.87,392.05,298.87,392.14Z" transform="translate(-38.63 -238.6)"/><path class="cls-39" d="M186.82,343.83v53.83h23.92c13.13-4.47,22.07-12.3,22.43-27-.39-13.16-7.74-22.11-22.24-26.73H195.6v5.52h11c11.83,1.19,20,7.17,21.87,21.3-1.72,12.52-8.56,18.9-18.88,21.12H192.43V343.92Z" transform="translate(-38.63 -238.6)"/><path class="cls-39" d="M242.71,343.92v53.65H279v-5.52H248.31V349.34h29.63v-5.51S242.47,343.69,242.71,343.92Z" transform="translate(-38.63 -238.6)"/><path class="cls-39" d="M251.58,366.91v6.45h23.27v-6.54S251.49,366.82,251.58,366.91Z" transform="translate(-38.63 -238.6)"/><path class="cls-39" d="M290,343.92v53.74h5.61V343.83S290.13,343.78,290,343.92Z" transform="translate(-38.63 -238.6)"/><path class="cls-39" d="M318.68,343.92h39.44v5.52H318.68S318.54,344.06,318.68,343.92Z" transform="translate(-38.63 -238.6)"/><path class="cls-39" d="M335,352.52v45.14h7.76V352.52S335.13,352.43,335,352.52Z" transform="translate(-38.63 -238.6)"/><polygon class="cls-39" points="314.17 159.06 320.52 159.06 340.52 113.08 361.36 158.97 366.69 158.97 343.7 105.32 338 105.32 314.17 159.06"/><path class="cls-40" d="M299.08,391.9v5.42H323.2V391.9S299.08,391.81,299.08,391.9Z" transform="translate(-38.63 -238.6)"/><path class="cls-40" d="M187,343.58v53.83H211c13.13-4.47,22.07-12.3,22.42-27-.39-13.16-7.74-22.12-22.24-26.73H195.82v5.51h11c11.83,1.2,20,7.18,21.87,21.31-1.72,12.51-8.56,18.89-18.88,21.12H192.64V343.68Z" transform="translate(-38.63 -238.6)"/><path class="cls-40" d="M242.92,343.68v53.64h36.26v-5.51H248.52V349.1h29.63v-5.52S242.68,343.44,242.92,343.68Z" transform="translate(-38.63 -238.6)"/><path class="cls-40" d="M251.8,366.67v6.45h23.27v-6.55S251.7,366.57,251.8,366.67Z" transform="translate(-38.63 -238.6)"/><path class="cls-40" d="M290.21,343.68v53.73h5.6V343.58S290.35,343.54,290.21,343.68Z" transform="translate(-38.63 -238.6)"/><path class="cls-40" d="M318.9,343.68h39.43v5.51H318.9S318.76,343.82,318.9,343.68Z" transform="translate(-38.63 -238.6)"/><path class="cls-40" d="M335.25,352.27v45.14H343V352.27S335.34,352.18,335.25,352.27Z" transform="translate(-38.63 -238.6)"/><polygon class="cls-40" points="314.38 158.82 320.73 158.82 340.73 112.84 361.57 158.72 366.9 158.72 343.91 105.08 338.21 105.08 314.38 158.82"/><path class="cls-41" d="M299.3,391.65v5.43h24.11v-5.43S299.3,391.56,299.3,391.65Z" transform="translate(-38.63 -238.6)"/><path class="cls-41" d="M187.24,343.34v53.83h23.93c13.13-4.47,22.07-12.3,22.43-27-.4-13.16-7.74-22.11-22.25-26.73H196V349h11c11.83,1.19,20,7.17,21.87,21.3-1.71,12.52-8.56,18.9-18.87,21.12h-17.2V343.43Z" transform="translate(-38.63 -238.6)"/><path class="cls-41" d="M243.13,343.43v53.65h36.26v-5.52H248.74V348.85h29.62v-5.51S242.9,343.2,243.13,343.43Z" transform="translate(-38.63 -238.6)"/><path class="cls-41" d="M252,366.42v6.45h23.27v-6.54S251.91,366.33,252,366.42Z" transform="translate(-38.63 -238.6)"/><path class="cls-41" d="M290.42,343.43v53.74H296V343.34S290.56,343.29,290.42,343.43Z" transform="translate(-38.63 -238.6)"/><path class="cls-41" d="M319.11,343.43h39.44V349H319.11S319,343.57,319.11,343.43Z" transform="translate(-38.63 -238.6)"/><path class="cls-41" d="M335.46,352v45.14h7.76V352S335.56,351.94,335.46,352Z" transform="translate(-38.63 -238.6)"/><polygon class="cls-41" points="314.59 158.57 320.94 158.57 340.94 112.59 361.79 158.48 367.11 158.48 344.12 104.83 338.42 104.83 314.59 158.57"/><path class="cls-42" d="M299.51,391.41v5.42h24.11v-5.42S299.51,391.32,299.51,391.41Z" transform="translate(-38.63 -238.6)"/><path class="cls-42" d="M187.45,343.09v53.83h23.93c13.13-4.47,22.07-12.3,22.43-27-.4-13.16-7.74-22.12-22.24-26.73H196.24v5.51h11c11.82,1.2,20,7.18,21.87,21.31-1.72,12.51-8.57,18.89-18.88,21.12h-17.2V343.19Z" transform="translate(-38.63 -238.6)"/><path class="cls-42" d="M243.34,343.19v53.64H279.6v-5.51H249V348.61h29.62v-5.52S243.11,343,243.34,343.19Z" transform="translate(-38.63 -238.6)"/><path class="cls-42" d="M252.22,366.18v6.45h23.27v-6.55S252.13,366.08,252.22,366.18Z" transform="translate(-38.63 -238.6)"/><path class="cls-42" d="M290.63,343.19v53.73h5.61V343.09S290.77,343.05,290.63,343.19Z" transform="translate(-38.63 -238.6)"/><path class="cls-42" d="M319.32,343.19h39.44v5.51H319.32S319.18,343.33,319.32,343.19Z" transform="translate(-38.63 -238.6)"/><path class="cls-42" d="M335.67,351.78v45.14h7.76V351.78S335.77,351.69,335.67,351.78Z" transform="translate(-38.63 -238.6)"/><polygon class="cls-42" points="314.8 158.33 321.16 158.33 341.16 112.35 362 158.23 367.32 158.23 344.33 104.59 338.63 104.59 314.8 158.33"/></g></svg>