<svg id="Vrstva_1" data-name="Vrstva 1" xmlns="http://www.w3.org/2000/svg" viewBox="0 0 470.19 188.11"><defs><style>.cls-1,.cls-6,.cls-9{fill:none;}.cls-1{stroke:#160b18;}.cls-1,.cls-5,.cls-6,.cls-8,.cls-9{stroke-miterlimit:10;}.cls-2{font-size:82.14px;}.cls-2,.cls-3,.cls-8{fill:#6b8cc7;}.cls-10,.cls-2,.cls-9{font-family:MyriadPro-Regular, Myriad Pro;}.cls-4,.cls-5{fill:#fff;}.cls-5,.cls-6,.cls-8{stroke:#1d1d1b;}.cls-7{fill:#915878;}.cls-10,.cls-9{font-size:16.11px;}.cls-9{stroke:#fff;stroke-width:2px;}.cls-10,.cls-11{fill:#1d1d1b;}</style></defs><path class="cls-1" d="M271.16,314.2l223.15-.09.34,148-211.49.09C297.53,409.12,293.8,359.74,271.16,314.2Z" transform="translate(-78.71 -295.25)"/><text class="cls-2" transform="translate(234.12 115.78)">ines</text><path class="cls-3" d="M223.26,314.69H78.71V462.77H235.27a200.66,200.66,0,0,0,8.82-59.61C244.09,369.72,236.3,339,223.26,314.69Zm-52.32,97L165,394.23H145.34l-5.77,17.46h-7.41L151,356.19h8.64l18.94,55.5Zm22.56,0h-7.25V371.84h7.25Zm-3.79-46.6a4.31,4.31,0,0,1-4.36-4.45,4.42,4.42,0,0,1,4.53-4.53,4.49,4.49,0,1,1-.17,9Zm33,12.68c-5.11,0-8.73,3.87-9.72,9.3a20.93,20.93,0,0,0-.33,3.38v21.24h-7.16V384.27c0-4.69-.08-8.73-.33-12.43h6.34l.25,7.82h.33c1.81-5.35,6.17-8.73,11-8.73a7.65,7.65,0,0,1,2.06.25V378A11.17,11.17,0,0,0,222.73,377.77Z" transform="translate(-78.71 -295.25)"/><path class="cls-3" d="M155.22,362.53h-.17c-.82,3.3-1.73,6.67-2.8,10.05l-5.43,16.05h16.71l-5.43-16C156.86,369,156,365.74,155.22,362.53Z" transform="translate(-78.71 -295.25)"/><path class="cls-4" d="M267.81,393.08c-4.26-2.41-6.43-1.62-8.05.43-2,2.57-1.15,8.81-1.15,8.81l1.44,1.29Z" transform="translate(-78.71 -295.25)"/><path class="cls-4" d="M259.76,393.51c1.62-2.05,3.79-2.84,8.05-.43l1.64-2.23-10.81-10.6a4.35,4.35,0,0,1-5.46-5.36l-5.55-5.45a4.34,4.34,0,0,1-5.46-5.35l-7.65-7.51a5.59,5.59,0,0,1-3.1.47c-2.2-.42-5.73-6.16-8.81-12.15l-.43-.43-1.7-3.49h.21c-.77-1.61-1.47-3.16-2.07-4.54a23.06,23.06,0,0,1,12,1.1,38.06,38.06,0,0,0,7,13.19,2.44,2.44,0,0,1,.42,2.71l7.65,7.51a4.34,4.34,0,0,1,5,4.92l6,5.88a4.34,4.34,0,0,1,5,4.92L272.26,387l7.28-9.88-5.32-5.36,5.32,5.36.69-.93c-.09-.05-.2-.08-.28-.13-5.34-2.75-32-29-33-29.91a85.38,85.38,0,0,0-12.66-7.68,17.26,17.26,0,0,1-2.34-1l-.32-.14-.55-.21c-6.35-2.33-15-2-17.26.32s-5.12,13.17,11.06,31.22a472.28,472.28,0,0,0,33.78,33.64S257.73,396.08,259.76,393.51Z" transform="translate(-78.71 -295.25)"/><path class="cls-4" d="M245.68,361,238,353.45a6.69,6.69,0,0,1-3.51,3.13l7.65,7.51a4.29,4.29,0,0,1,3.51-3.13Z" transform="translate(-78.71 -295.25)"/><path class="cls-4" d="M220.67,341h-.19l1.7,3.49.43.43c-.67-1.31-1.32-2.63-1.92-3.91Z" transform="translate(-78.71 -295.25)"/><path class="cls-4" d="M256.69,371.76l-6-5.88a4.26,4.26,0,0,1-3.06,3.56l5.55,5.45a4.29,4.29,0,0,1,3.51-3.13Z" transform="translate(-78.71 -295.25)"/><path class="cls-4" d="M261.7,376.68a4.24,4.24,0,0,1-1.2,2.46,4.31,4.31,0,0,1-1.86,1.11l10.81,10.6,2.81-3.81Z" transform="translate(-78.71 -295.25)"/><path class="cls-4" d="M221.79,341.13a3.56,3.56,0,0,0,1,.21.45.45,0,0,1,.11,0,4.64,4.64,0,0,0,.65.11l.08,0h0a4.48,4.48,0,0,0,.84.2l.31.07a3.26,3.26,0,0,0,1.1.33,3.86,3.86,0,0,0,.48.16l.1,0,.27.11,11.26,11a2.44,2.44,0,0,0-.42-2.71,38.06,38.06,0,0,1-7-13.19,23.06,23.06,0,0,0-12-1.1c.6,1.38,1.3,2.93,2.07,4.54a3.5,3.5,0,0,0,.65.07Z" transform="translate(-78.71 -295.25)"/><path class="cls-4" d="M231.42,357.05a5.59,5.59,0,0,0,3.1-.47L222.61,344.9C225.69,350.89,229.22,356.63,231.42,357.05Z" transform="translate(-78.71 -295.25)"/><path class="cls-4" d="M238,353.45l-11.26-11-.27-.11-.1,0a3.86,3.86,0,0,1-.48-.16,3.26,3.26,0,0,1-1.1-.33l-.31-.07a4.48,4.48,0,0,1-.84-.2h0l-.08,0a4.64,4.64,0,0,1-.65-.11.45.45,0,0,0-.11,0,3.56,3.56,0,0,1-1-.21l-.45-.07a3.5,3.5,0,0,1-.65-.07c.6,1.28,1.25,2.6,1.92,3.91l11.91,11.68A6.69,6.69,0,0,0,238,353.45Z" transform="translate(-78.71 -295.25)"/><path class="cls-4" d="M249.44,362.15a4.37,4.37,0,0,0-3.76-1.19l5,4.92A4.33,4.33,0,0,0,249.44,362.15Z" transform="translate(-78.71 -295.25)"/><path class="cls-4" d="M243.3,368.4a4.35,4.35,0,0,0,4.33,1l-5.46-5.35A4.36,4.36,0,0,0,243.3,368.4Z" transform="translate(-78.71 -295.25)"/><path class="cls-4" d="M249.49,368.34a4.3,4.3,0,0,0,1.2-2.46l-5-4.92a4.29,4.29,0,0,0-3.51,3.13l5.46,5.35A4.29,4.29,0,0,0,249.49,368.34Z" transform="translate(-78.71 -295.25)"/><path class="cls-4" d="M260.45,373a4.37,4.37,0,0,0-3.76-1.19l5,4.92A4.36,4.36,0,0,0,260.45,373Z" transform="translate(-78.71 -295.25)"/><path class="cls-4" d="M254.31,379.2a4.37,4.37,0,0,0,4.33,1.05l-5.46-5.36A4.36,4.36,0,0,0,254.31,379.2Z" transform="translate(-78.71 -295.25)"/><path class="cls-4" d="M260.5,379.14a4.24,4.24,0,0,0,1.2-2.46l-5-4.92a4.29,4.29,0,0,0-3.51,3.13l5.46,5.36A4.31,4.31,0,0,0,260.5,379.14Z" transform="translate(-78.71 -295.25)"/><path class="cls-5" d="M339.9,418.57c10.41-2.63,1.33-7.8-8.25-8.12-1.87-.06-24.19.17-33.49-5.24l-13-12.63-9.35-9.5s22.32-.68,17.84-7.09c-1.22-1.74-2.41-3.81-4.38-4.4-12.52-3.74-23.76-2.72-29-5.5-3.51-1.86-20.94-19.4-21.65-20a57.3,57.3,0,0,0-8.31-5.17,11.83,11.83,0,0,1-1.55-.69l-.21-.09-.36-.15c-4.19-1.58-9.89-1.42-11.42.1s-4.79,5.76,7.11,20.72l22.11,22.47s-.54-4.14.82-5.82,3.26-2.06,7.72,1.42,9.94,9.41,10.37,12-.33,2.94-1.2,4.35a20.44,20.44,0,0,1-2,2.44c0,.06,0,.24.24.51,2.31,3.19,19.64,19.62,19.64,19.62s18.58,13.39,19.78,11.65,1.37-6.74,1.58-7.66c.91-4,9.68,4.79,9.78,6.09a14.94,14.94,0,0,1-1,5.6c-.66,1.41,8.53,4,10.43,3.16s2.56-2.88.93-4.73-3-2.61-3.69-4.13S337.34,419.22,339.9,418.57Z" transform="translate(-78.71 -295.25)"/><path class="cls-5" d="M261.62,397.69s-7.13,11.47-8.6,12.61-2.56,1.79-4,.76-4.62-4.41-4.73-6.47,1.65-21.31,1.65-21.31" transform="translate(-78.71 -295.25)"/><line class="cls-6" x1="197.07" y1="87.84" x2="177.73" y2="67.96"/><path class="cls-5" d="M301.28,429.47s-1.87,5,3.53,11.69c5.53,6.83,6.12-6.75,6.8-7.66" transform="translate(-78.71 -295.25)"/><path class="cls-7" d="M302.65,421l-77.38-77.5-.18-.07-.06,0a1.42,1.42,0,0,1-.33-.11A2.07,2.07,0,0,1,224,343l-.2,0a2.55,2.55,0,0,1-.56-.14h0l-.06,0a2.07,2.07,0,0,1-.42-.08l-.08,0a2.29,2.29,0,0,1-.68-.14l-.29-.05a2.3,2.3,0,0,1-.45,0h-.13l1.11,2.32L302,424.67c.07-.7.21-2.1.25-2.71A1.42,1.42,0,0,1,302.65,421Z" transform="translate(-78.71 -295.25)"/><circle class="cls-8" cx="209.22" cy="113.38" r="2.9"/><circle class="cls-8" cx="201.19" cy="105.34" r="2.9"/><circle class="cls-8" cx="193.75" cy="97.89" r="2.9"/><path class="cls-8" d="M219.92,339.46c2.1,5,6.15,13.26,8.33,13.7S234,351,232.38,349a25.07,25.07,0,0,1-4.56-8.77A15.27,15.27,0,0,0,219.92,339.46Z" transform="translate(-78.71 -295.25)"/><circle class="cls-8" cx="159.36" cy="63.45" r="2.9"/><circle class="cls-8" cx="166.57" cy="70.67" r="2.9"/><text class="cls-9" transform="translate(27.59 23.26)">Just</text><text class="cls-10" transform="translate(27.74 23.26)">Just</text><path class="cls-11" d="M135.92,312.81a639.35,639.35,0,0,0,68.35-3c23-2.07,45.92-4.89,68.87-7.42,22.16-2.45,44.37-4.63,66.66-5.57a452.41,452.41,0,0,1,64.92,1.52,287.33,287.33,0,0,1,62.76,13.17c2.55.87,5.09,1.77,7.61,2.72a2.89,2.89,0,0,0,1.85-.21c.1,0,1.3-.59.89-.75a278.35,278.35,0,0,0-62.07-15,422,422,0,0,0-64.36-2.87c-22.06.56-44.06,2.44-66,4.74-23.08,2.43-46.11,5.31-69.2,7.6s-46.4,4-69.69,4c-2.9,0-5.79,0-8.69-.07a3.37,3.37,0,0,0-2,.55c-.29.32-.55.54.15.55Z" transform="translate(-78.71 -295.25)"/><path class="cls-11" d="M494.64,324.72c9.59,5.6,16.06,15.11,22.36,24a212.13,212.13,0,0,1,18.36,29.9c9.51,19.5,14.33,42.35,7.28,63.46-3.52,10.56-10.11,19.39-18.6,26.51a70.57,70.57,0,0,1-14.4,9.69A40.73,40.73,0,0,1,492.1,482c-11.92.14-24-1.85-35.67-4.3a346.23,346.23,0,0,1-34.11-9.25c-22.79-7.26-45.12-15.93-68.12-22.52-2.76-.79-5.52-1.55-8.3-2.27a2.89,2.89,0,0,0-2,.32c-.27.15-1,.75-.31.93,23.74,6.2,46.67,15,69.95,22.69,22.94,7.58,46.55,14.19,70.78,15.6A62.85,62.85,0,0,0,502.7,482a49.14,49.14,0,0,0,15.8-7.31c9.37-6.27,17.93-14.28,23.27-24.32,10.46-19.65,8.37-43.58.42-63.68-4.35-11-10.34-21.22-16.9-31-3.34-5-6.83-9.89-10.4-14.71A82,82,0,0,0,504,328.5a42,42,0,0,0-6.63-4.84,2.31,2.31,0,0,0-1.89.08c-.17.07-1.34.67-.82,1Z" transform="translate(-78.71 -295.25)"/><path class="cls-11" d="M496.18,323l-.12,0,.15.06a2.17,2.17,0,0,1-.53-.31l.12.1a2.33,2.33,0,0,1-.41-.42l.09.13v0a.92.92,0,0,0-.22-.22l-.15-.06a.43.43,0,0,0-.25,0,.29.29,0,0,0-.16,0,.29.29,0,0,0-.14.08.6.6,0,0,0-.22.32,1.62,1.62,0,0,0,.18,1.34.71.71,0,0,0,.37.29.65.65,0,0,0,.49-.07.58.58,0,0,0,.28-.37.62.62,0,0,0-.06-.48.7.7,0,0,1-.09-.17l.06.15a2,2,0,0,1-.07-.26l0,.17a1.13,1.13,0,0,1,0-.26l0,.17a.47.47,0,0,1,0-.17l-1.15.14a2.91,2.91,0,0,0,.7.7,3.53,3.53,0,0,0,.75.38.69.69,0,0,0,.49-.06.63.63,0,0,0,.28-.38.62.62,0,0,0-.06-.48l-.1-.12a.63.63,0,0,0-.27-.16Z" transform="translate(-78.71 -295.25)"/><path class="cls-11" d="M496.62,324.59a.63.63,0,0,0,0-1.25.63.63,0,0,0,0,1.25Z" transform="translate(-78.71 -295.25)"/><path class="cls-11" d="M496.23,324.4a.63.63,0,0,0,0-1.25.63.63,0,0,0,0,1.25Z" transform="translate(-78.71 -295.25)"/><path class="cls-11" d="M494.61,323.28a.63.63,0,0,0,0-1.25.63.63,0,0,0,0,1.25Z" transform="translate(-78.71 -295.25)"/><path class="cls-11" d="M80.56,312.08a199.24,199.24,0,0,0,25.5,1.13c.37,0-.1-1.13-.46-1.12A199.4,199.4,0,0,1,80.09,311c-.32,0,.1,1.08.47,1.12Z" transform="translate(-78.71 -295.25)"/></svg>